<svg width="610" height="610" viewBox="0 0 610 610" fill="none" xmlns="http://www.w3.org/2000/svg">
<g clip-path="url(#clip0_26_9469)">
<path d="M244.378 49.9518L263.527 158.047C264.106 161.311 261.807 164.384 258.513 164.751L176.807 175.088L158.072 65.0627L236.597 44.9388C240.156 44.0274 243.738 46.3357 244.378 49.9518Z" fill="#263238"/>
<path d="M258.924 164.889C258.796 164.912 258.666 164.931 258.535 164.945L176.646 175.306L176.615 175.121L157.849 64.9187L236.548 44.7497C238.326 44.2959 240.147 44.5911 241.687 45.583C243.227 46.5748 244.25 48.1145 244.57 49.9176L263.719 158.013C264.008 159.646 263.62 161.274 262.628 162.602C261.716 163.824 260.411 164.627 258.924 164.889Z" fill="#E0E0E0"/>
<path d="M233.779 45.1133L241.704 46.4211L261.355 157.348L261.761 159.64L253.698 161.055L233.779 45.1133Z" fill="#EBEBEB"/>
<path d="M157.705 64.8895C157.705 64.8895 184.574 48.6562 233.634 44.7034L253.676 161.218L176.036 173.243L157.705 64.8895Z" fill="white"/>
<path d="M157.705 64.8894C157.705 64.8894 157.739 65.0639 157.799 65.4043C157.857 65.7459 157.945 66.2522 158.061 66.9183C158.29 68.2542 158.628 70.2306 159.069 72.8024C159.945 77.9471 161.227 85.4721 162.851 95.0039C166.085 114.062 170.682 141.138 176.128 173.229L176.023 173.153C199.443 169.523 225.812 165.436 253.66 161.119L253.576 161.238C253.339 159.86 253.083 158.371 252.826 156.877C245.59 114.765 238.903 75.856 233.553 44.7192L233.641 44.7875C221.652 45.7513 210.806 47.4691 201.362 49.5357C191.915 51.6 183.869 54.0058 177.383 56.2921C170.894 58.5784 165.964 60.7402 162.669 62.3201C161.85 62.7252 161.127 63.0814 160.503 63.3901C159.887 63.7121 159.37 63.983 158.953 64.2014C158.146 64.6442 157.775 64.8492 157.705 64.8894C157.705 64.8894 157.805 64.826 158.012 64.7028C158.222 64.5844 158.532 64.4088 158.939 64.1782C159.355 63.9574 159.871 63.6816 160.485 63.3559C161.107 63.0448 161.829 62.6837 162.647 62.275C165.936 60.6792 170.863 58.5027 177.351 56.2018C183.836 53.9021 191.883 51.4816 201.333 49.404C210.779 47.3251 221.63 45.5951 233.626 44.6216L233.701 44.6155L233.713 44.6899C239.074 75.8243 245.774 114.733 253.024 156.842C253.282 158.335 253.538 159.825 253.775 161.202L253.792 161.305L253.689 161.321C225.84 165.63 199.471 169.711 176.049 173.335L175.959 173.349L175.945 173.26C170.529 141.146 165.959 114.047 162.742 94.9746C161.14 85.4464 159.876 77.9227 159.012 72.7804C158.583 70.2135 158.254 68.2396 158.032 66.9061C157.922 66.2424 157.839 65.7386 157.783 65.3982C157.729 65.059 157.705 64.8894 157.705 64.8894Z" fill="#E0E0E0"/>
<path d="M161.045 63.9794C162.785 72.2229 168.266 102.286 168.266 102.286L171.448 95.143L176.802 99.7363L168.57 58.0123L162.53 60.9525C161.399 61.5052 160.785 62.7496 161.045 63.9794Z" fill="#E0E0E0"/>
<path d="M256.066 160.648C256.066 160.648 256.041 160.548 256.004 160.353C255.966 160.152 255.911 159.862 255.84 159.483C255.7 158.711 255.495 157.585 255.233 156.134C254.718 153.217 253.976 149.008 253.06 143.809C251.248 133.397 248.823 119 246.179 103.094C243.514 87.1886 241.103 72.7902 239.357 62.3628C238.467 57.1583 237.746 52.9457 237.247 50.0274C237.001 48.5744 236.808 47.4459 236.676 46.6724C236.614 46.293 236.567 46.0026 236.534 45.7989C236.503 45.6025 236.492 45.5 236.492 45.5C236.492 45.5 236.517 45.5988 236.554 45.7952C236.592 45.9978 236.647 46.2869 236.718 46.6651C236.858 47.4361 237.063 48.5634 237.325 50.0128C237.84 52.9286 238.582 57.1376 239.498 62.3384C241.31 72.7499 243.735 87.1484 246.38 103.061C249.043 118.961 251.455 133.357 253.202 143.784C254.093 148.989 254.813 153.202 255.312 156.121C255.558 157.574 255.751 158.703 255.883 159.476C255.945 159.855 255.993 160.147 256.027 160.35C256.055 160.547 256.066 160.648 256.066 160.648Z" fill="#E0E0E0"/>
<path d="M258.186 160.273C258.131 160.282 253.636 134.684 248.146 103.106C242.654 71.5165 238.249 45.9075 238.305 45.8977C238.361 45.8879 242.856 71.4799 248.347 103.071C253.836 134.649 258.241 160.263 258.186 160.273Z" fill="#E0E0E0"/>
<path d="M68.6116 78.0251L88.4342 189.919C88.7929 191.946 90.9144 193.233 93.0775 192.736L176.809 175.09C178.812 174.63 176.868 171.162 176.536 169.286L135.458 69.2167C135.125 67.3392 133.267 66.0691 131.228 66.3266L72.0032 73.7856C69.8011 74.0614 68.2517 75.9975 68.6116 78.0251Z" fill="#E0E0E0"/>
<path d="M80.5457 72.1825L102.301 189.508L176.521 173.397L158.072 65.0638L80.5457 72.1825Z" fill="#EBEBEB"/>
<path d="M86.9482 69.0923C86.9482 69.0923 130.669 52.7162 157.974 65.9203L176.422 174.254L108.032 188.112L86.9482 69.0923Z" fill="white"/>
<path d="M87.0458 68.2359C87.1983 69.0923 95.8347 117.619 108.224 187.24L108.112 187.163C127.984 183.134 149.781 178.715 172.548 174.099C173.879 173.829 175.207 173.56 176.499 173.299L176.418 173.416C169.446 132.421 163.042 94.7721 157.991 65.0785L158.035 65.1371C156.762 64.5905 155.532 63.9781 154.245 63.5487C153.926 63.4315 153.61 63.3156 153.294 63.1997C152.98 63.0814 152.664 62.9655 152.341 62.8764C151.701 62.6837 151.064 62.4921 150.431 62.3006C147.88 61.6101 145.353 61.066 142.863 60.7378C140.381 60.3584 137.941 60.1973 135.575 60.0656C134.39 60.0338 133.224 59.9948 132.075 59.9911C131.5 59.996 130.93 60.0009 130.366 60.007C129.801 60.007 129.24 60.0192 128.684 60.0473C124.239 60.1961 120.107 60.6133 116.319 61.1404C112.53 61.6699 109.085 62.3116 106 62.9679C99.829 64.288 95.093 65.6532 91.899 66.6377C90.302 67.1318 89.0881 67.5332 88.2744 67.8113C87.4838 68.0846 87.1215 68.2091 87.0458 68.2359C87.0458 68.2359 87.4582 68.0736 88.2683 67.7882C89.0796 67.5015 90.291 67.094 91.8868 66.5926C95.0771 65.5922 99.8107 64.2123 105.983 62.8789C109.068 62.2152 112.515 61.5662 116.305 61.0306C120.094 60.4962 124.231 60.0729 128.682 59.9179C129.238 59.8899 129.8 59.8765 130.366 59.8765C130.932 59.8704 131.503 59.8643 132.077 59.8594C133.228 59.8606 134.396 59.8996 135.582 59.9301C137.952 60.0582 140.396 60.2181 142.885 60.595C145.38 60.922 147.914 61.4637 150.474 62.1542C151.109 62.3445 151.749 62.5361 152.391 62.73C152.715 62.8191 153.032 62.935 153.348 63.0533C153.665 63.1692 153.984 63.2864 154.302 63.4035C155.594 63.8329 156.829 64.4466 158.107 64.9944L158.144 65.0102L158.151 65.0529C163.213 94.7453 169.631 132.391 176.619 173.383L176.637 173.48L176.54 173.5C175.248 173.762 173.921 174.031 172.59 174.3C149.821 178.912 128.023 183.326 108.151 187.351L108.055 187.37L108.038 187.274C95.7566 117.631 87.1971 69.0923 87.0458 68.2359Z" fill="#E0E0E0"/>
<path d="M71.7348 77.3518L80.5456 72.1826L102.301 189.508L91.5147 189.012L71.7348 77.3518Z" fill="#EBEBEB"/>
<path d="M93.7302 186.227C93.6753 186.237 89.265 161.609 83.8836 131.225C78.4997 100.831 74.1809 76.1915 74.2358 76.1818C74.2907 76.172 78.6998 100.795 84.0836 131.189C89.4663 161.572 93.7851 186.216 93.7302 186.227Z" fill="#E0E0E0"/>
<path d="M79.7685 92.5078L74.7604 112.739L85.4147 124.383L79.7685 92.5078Z" fill="#F5F5F5"/>
<path d="M96.1763 185.131C96.1214 185.141 91.9148 161.661 86.7835 132.693C81.6498 103.716 77.5347 80.2249 77.5896 80.2139C77.6445 80.2041 81.8498 103.679 86.9836 132.657C92.1161 161.626 96.2324 185.122 96.1763 185.131Z" fill="#E0E0E0"/>
<path d="M99.3849 188.805C99.33 188.815 94.8904 164.017 89.4712 133.425C84.0495 102.823 79.7014 78.0142 79.7563 78.0044C79.8112 77.9946 84.2496 102.786 89.6713 133.39C95.0905 163.981 99.4398 188.795 99.3849 188.805Z" fill="#E0E0E0"/>
<path d="M148.584 78.3485C148.575 78.3912 147.923 78.3241 146.75 78.1643C145.58 77.9947 143.878 77.7934 141.776 77.5958C137.572 77.1944 131.723 76.9711 125.3 77.4933C118.876 78.0301 113.143 79.2074 109.061 80.292C107.018 80.8312 105.374 81.3082 104.247 81.6669C103.116 82.0158 102.482 82.1903 102.468 82.1488C102.453 82.1073 103.058 81.8548 104.167 81.4327C105.273 81.0008 106.904 80.4554 108.941 79.8589C113.012 78.6584 118.777 77.4006 125.248 76.8601C131.719 76.3343 137.61 76.6307 141.823 77.1492C143.931 77.4054 145.628 77.6751 146.789 77.9203C147.953 78.1545 148.591 78.3058 148.584 78.3485Z" fill="#E0E0E0"/>
<path d="M150.106 87.6925C150.098 87.7352 149.445 87.6681 148.273 87.5083C147.103 87.3387 145.402 87.1362 143.299 86.9398C139.095 86.5384 133.246 86.3151 126.823 86.8373C120.398 87.3741 114.665 88.5514 110.583 89.636C108.541 90.1752 106.896 90.6522 105.769 91.0109C104.638 91.3598 104.005 91.5343 103.99 91.4928C103.976 91.4513 104.581 91.1988 105.69 90.7766C106.795 90.3448 108.426 89.7994 110.464 89.2028C114.535 88.0024 120.299 86.7445 126.77 86.2041C133.241 85.6783 139.132 85.9747 143.345 86.4932C145.453 86.7494 147.15 87.019 148.312 87.2643C149.476 87.4997 150.114 87.6498 150.106 87.6925Z" fill="#E0E0E0"/>
<path d="M151.629 97.0365C151.62 97.0792 150.968 97.0121 149.795 96.8523C148.625 96.6827 146.925 96.4814 144.821 96.2837C140.617 95.8824 134.769 95.6591 128.345 96.1813C121.921 96.7181 116.188 97.8954 112.106 98.9787C110.064 99.518 108.419 99.995 107.293 100.354C106.162 100.703 105.529 100.877 105.514 100.836C105.5 100.794 106.105 100.542 107.214 100.119C108.319 99.6875 109.95 99.1422 111.987 98.5456C116.059 97.3451 121.823 96.0873 128.294 95.5469C134.765 95.021 140.656 95.3175 144.869 95.836C146.977 96.0922 148.674 96.3618 149.836 96.607C150.998 96.8437 151.636 96.9938 151.629 97.0365Z" fill="#E0E0E0"/>
<path d="M153.15 106.382C153.142 106.424 152.489 106.357 151.317 106.197C150.147 106.028 148.446 105.827 146.343 105.629C142.139 105.228 136.291 105.004 129.867 105.526C123.442 106.063 117.709 107.241 113.627 108.325C111.585 108.864 109.94 109.341 108.814 109.7C107.683 110.049 107.05 110.223 107.036 110.182C107.021 110.141 107.626 109.888 108.735 109.466C109.84 109.034 111.471 108.489 113.509 107.892C117.58 106.692 123.344 105.434 129.815 104.893C136.285 104.367 142.178 104.664 146.39 105.182C148.498 105.437 150.195 105.708 151.357 105.953C152.521 106.188 153.159 106.338 153.15 106.382Z" fill="#E0E0E0"/>
<path d="M155.49 115.883C155.482 115.926 154.829 115.859 153.657 115.699C152.487 115.529 150.786 115.328 148.683 115.13C144.479 114.729 138.63 114.506 132.207 115.028C125.782 115.565 120.049 116.742 115.967 117.827C113.925 118.366 112.28 118.843 111.153 119.201C110.022 119.55 109.389 119.725 109.374 119.683C109.36 119.642 109.965 119.389 111.074 118.967C112.179 118.535 113.81 117.99 115.848 117.393C119.919 116.193 125.683 114.935 132.154 114.395C138.625 113.869 144.516 114.165 148.729 114.684C150.837 114.94 152.534 115.21 153.696 115.455C154.86 115.689 155.499 115.84 155.49 115.883Z" fill="#E0E0E0"/>
<path d="M159.527 127.852C159.519 127.895 158.833 127.823 157.602 127.657C156.987 127.564 156.233 127.471 155.356 127.384C154.479 127.288 153.483 127.166 152.376 127.091C150.166 126.88 147.525 126.782 144.593 126.734C141.66 126.73 138.437 126.826 135.064 127.094C131.69 127.383 128.494 127.816 125.601 128.299C122.717 128.826 120.127 129.355 117.983 129.925C116.902 130.179 115.939 130.462 115.09 130.701C114.238 130.93 113.51 131.146 112.918 131.338C111.731 131.704 111.066 131.887 111.051 131.845C111.036 131.804 111.673 131.543 112.839 131.104C113.42 130.876 114.14 130.624 114.985 130.362C115.828 130.09 116.787 129.775 117.865 129.491C120.007 128.863 122.601 128.284 125.498 127.722C128.401 127.203 131.617 126.751 135.011 126.459C138.405 126.191 141.651 126.111 144.601 126.147C147.549 126.227 150.204 126.373 152.418 126.642C153.528 126.745 154.526 126.898 155.402 127.029C156.28 127.15 157.031 127.279 157.641 127.41C158.865 127.655 159.536 127.81 159.527 127.852Z" fill="#E0E0E0"/>
<path d="M161.678 139.129C161.672 139.173 160.979 139.141 159.732 139.05C158.488 138.94 156.68 138.849 154.45 138.776C149.988 138.649 143.811 138.836 137.051 139.708C130.289 140.562 124.228 141.782 119.843 142.664C117.734 143.088 115.984 143.438 114.647 143.706C113.419 143.944 112.734 144.055 112.724 144.011C112.715 143.969 113.381 143.776 114.593 143.465C115.806 143.155 117.565 142.722 119.749 142.225C124.113 141.23 130.177 139.937 136.972 139.078C143.764 138.2 149.988 138.085 154.467 138.327C156.707 138.459 158.516 138.618 159.757 138.803C161.001 138.971 161.684 139.086 161.678 139.129Z" fill="#E0E0E0"/>
<path d="M162.212 151.193C162.21 151.237 161.526 151.257 160.291 151.254C159.058 151.256 157.271 151.264 155.069 151.362C150.664 151.519 144.588 152.051 137.948 153.134C131.304 154.211 125.368 155.617 121.105 156.747C118.973 157.314 117.252 157.791 116.066 158.136C114.879 158.474 114.214 158.643 114.201 158.601C114.187 158.56 114.824 158.312 115.992 157.901C117.155 157.483 118.861 156.938 120.984 156.314C125.228 155.071 131.173 153.588 137.845 152.507C144.514 151.419 150.63 150.956 155.056 150.913C157.269 150.871 159.061 150.932 160.296 151.007C161.534 151.086 162.215 151.151 162.212 151.193Z" fill="#E0E0E0"/>
<path d="M221.615 61.7236C221.619 61.7675 220.849 61.892 219.452 62.0799C218.056 62.2604 216.038 62.5459 213.55 62.929C208.576 63.6927 201.734 64.9639 194.302 66.8854C186.869 68.8179 180.272 71.0322 175.553 72.7829C173.192 73.6564 171.29 74.3872 169.983 74.9082C168.671 75.423 167.938 75.689 167.92 75.6487C167.911 75.6292 168.082 75.5328 168.415 75.3693C168.819 75.1802 169.304 74.9533 169.886 74.6812C171.167 74.0895 173.047 73.2929 175.393 72.3632C180.082 70.5003 186.683 68.2104 194.142 66.2706C201.603 64.3405 208.483 63.1352 213.487 62.4837C215.989 62.1555 218.019 61.9383 219.426 61.8334C220.067 61.7883 220.602 61.7505 221.046 61.72C221.418 61.7004 221.613 61.7017 221.615 61.7236Z" fill="#E0E0E0"/>
<path d="M228.601 81.3668C228.605 81.3888 228.406 81.4412 228.027 81.523C227.573 81.6108 227.023 81.7182 226.36 81.8475C224.813 82.1366 222.742 82.5246 220.226 82.9943C215.051 83.9813 207.923 85.4599 200.125 87.3997C192.326 89.3469 185.338 91.3842 180.304 92.9422C177.861 93.7071 175.85 94.3366 174.349 94.8076C173.702 95.004 173.167 95.1687 172.725 95.3029C172.352 95.409 172.152 95.4554 172.144 95.4346C172.137 95.4139 172.323 95.3273 172.683 95.1821C173.114 95.0162 173.638 94.8161 174.269 94.5733C175.65 94.0536 177.664 93.3472 180.167 92.514C185.172 90.845 192.156 88.7344 199.971 86.7836C207.787 84.8402 214.943 83.4274 220.145 82.5527C222.746 82.1135 224.857 81.7926 226.321 81.6035C226.992 81.5206 227.548 81.4522 228.007 81.3961C228.394 81.3559 228.599 81.3449 228.601 81.3668Z" fill="#E0E0E0"/>
<path d="M229.779 92.2711C229.782 92.2931 229.581 92.348 229.195 92.4346C228.737 92.5285 228.178 92.642 227.502 92.7799C225.932 93.0812 223.825 93.485 221.264 93.9767C215.999 94.9868 208.735 96.4338 200.749 98.2015C192.76 99.973 185.564 101.73 180.365 103.038C177.837 103.673 175.756 104.197 174.206 104.587C173.537 104.747 172.981 104.88 172.525 104.988C172.14 105.074 171.933 105.108 171.927 105.087C171.921 105.066 172.115 104.991 172.491 104.865C172.939 104.725 173.483 104.555 174.14 104.349C175.576 103.911 177.664 103.313 180.251 102.603C185.427 101.182 192.615 99.3544 200.612 97.5818C208.608 95.8128 215.895 94.433 221.185 93.5363C223.83 93.0861 225.975 92.7469 227.462 92.5383C228.145 92.4468 228.711 92.3724 229.175 92.3102C229.567 92.2626 229.776 92.2492 229.779 92.2711Z" fill="#E0E0E0"/>
<path d="M232.393 104.41C232.427 104.582 219.419 107.272 203.344 110.417C187.263 113.564 174.203 115.973 174.168 115.801C174.134 115.629 187.139 112.939 203.222 109.794C219.297 106.649 232.36 104.238 232.393 104.41Z" fill="#E0E0E0"/>
<path d="M236.151 116.325C236.182 116.497 223.188 119.072 207.13 122.077C191.067 125.082 178.022 127.377 177.991 127.205C177.959 127.033 190.951 124.457 207.015 121.452C223.072 118.447 236.119 116.151 236.151 116.325Z" fill="#E0E0E0"/>
<path d="M238.525 129.293C238.552 129.466 225.489 131.62 209.355 134.102C193.214 136.586 180.111 138.458 180.084 138.285C180.057 138.111 193.116 135.958 209.258 133.474C225.393 130.993 238.498 129.12 238.525 129.293Z" fill="#E0E0E0"/>
<path d="M237.655 142.061C237.683 142.234 226.158 144.236 211.916 146.532C197.671 148.828 186.103 150.549 186.074 150.376C186.046 150.203 197.569 148.201 211.815 145.905C226.056 143.609 237.627 141.887 237.655 142.061Z" fill="#E0E0E0"/>
<path d="M226.683 71.6837C226.686 71.7057 226.492 71.7532 226.121 71.824C225.676 71.9009 225.139 71.9924 224.493 72.1034C222.979 72.3571 220.959 72.6951 218.508 73.105C213.462 73.9822 206.519 75.3632 198.95 77.303C191.381 79.2514 184.632 81.3888 179.788 83.0517C177.443 83.8739 175.51 84.551 174.061 85.0586C173.443 85.2721 172.928 85.4502 172.501 85.5978C172.141 85.7149 171.948 85.7662 171.941 85.7454C171.932 85.7247 172.109 85.6332 172.454 85.4782C172.87 85.3001 173.371 85.0854 173.973 84.8268C175.295 84.268 177.229 83.5128 179.638 82.6271C184.453 80.852 191.201 78.6414 198.792 76.6869C206.381 74.741 213.36 73.4271 218.434 72.6609C220.971 72.2766 223.031 72.0058 224.458 71.8582C225.111 71.7947 225.652 71.741 226.103 71.6971C226.482 71.6678 226.681 71.663 226.683 71.6837Z" fill="#E0E0E0"/>
<path d="M557.815 43.504H429.324V256.193H557.815V43.504Z" fill="#E0E0E0"/>
<path d="M553.541 43.504H425.051V256.193H553.541V43.504Z" fill="#EBEBEB"/>
<path d="M548.069 47.8168H430.522V251.879H548.069V47.8168Z" fill="white"/>
<path d="M525.182 74.3334H452.901V225.362H525.182V74.3334Z" fill="#EBEBEB"/>
<path d="M452.901 171.919C452.734 157.811 465.419 144.038 479.389 142.068C486.052 141.128 493.129 142.451 499.355 139.899C510.465 135.342 514.001 120.58 525.183 116.201L525.693 225.363H452.901V171.919Z" fill="#E0E0E0"/>
<path d="M64.6613 397.885C57.983 393.69 50.3311 391.058 42.4865 390.252C38.8631 389.88 34.9042 389.986 31.997 392.181C31.3797 392.647 30.7782 393.337 30.9173 394.097C31.0185 394.655 31.4907 395.062 31.9433 395.407C40.9652 402.29 54.6133 403.159 64.6613 397.885Z" fill="#E0E0E0"/>
<path d="M64.0927 397.258C59.0724 393.34 54.0229 389.396 49.7699 384.656C45.517 379.917 42.0608 374.29 40.7907 368.05C40.4052 366.157 40.2857 363.994 41.5008 362.493C52.9163 371.408 61.8845 382.941 64.0927 397.258Z" fill="#E0E0E0"/>
<path d="M64.5429 397.799C63.6828 391.554 63.3742 385.134 64.8077 378.994C66.2424 372.855 69.5815 366.98 74.8239 363.477C76.7966 368.089 75.9487 373.401 74.5591 378.22C72.4107 385.666 69.0423 392.761 64.6271 399.13" fill="#E0E0E0"/>
<path d="M75.7352 417.853C68.941 418.678 63.024 422.259 57.9512 426.854C52.8785 431.447 49.2721 437.637 47.7789 444.316C54.4425 443.904 60.096 439.204 64.1964 433.935C68.2968 428.665 71.1382 422.884 75.6412 417.955" fill="#E0E0E0"/>
<path d="M78.1654 421.06C72.6937 407.58 74.6762 391.338 83.2296 379.571C87.1007 393.339 85.6794 408.892 78.1654 421.06Z" fill="#E0E0E0"/>
<path d="M92.9531 438.668C86.7872 438.285 80.5188 439.754 75.1655 442.836C69.8121 445.917 65.3933 450.601 62.6275 456.125C62.2518 456.877 61.9199 457.831 62.4226 458.503C62.8593 459.087 63.7048 459.142 64.4331 459.095C70.4099 458.708 75.7071 455.111 80.0772 451.017C84.4484 446.923 88.2561 442.193 93.086 438.651" fill="#E0E0E0"/>
<path d="M92.4822 437.709C89.3016 427.532 89.104 416.442 91.9185 406.159C93.0299 402.097 94.8965 397.822 98.6517 395.918C98.9726 395.756 99.3459 395.611 99.6814 395.738C99.9998 395.858 100.185 396.184 100.333 396.491C101.669 399.283 102.058 402.451 101.92 405.543C101.782 408.634 101.142 411.678 100.501 414.706C99.319 420.306 98.6895 426.325 95.6176 431.154C94.888 432.301 94.2463 433.539 93.6643 434.767C93.0824 435.994 93.0787 436.426 92.5456 437.403" fill="#E0E0E0"/>
<path d="M131.625 443.542C128.725 432.511 131.803 419.137 138.754 410.095C139.267 409.428 139.945 408.715 140.781 408.793C142.061 408.911 142.392 410.617 142.335 411.901C141.834 423.173 138.072 434.281 131.625 443.542Z" fill="#E0E0E0"/>
<path d="M135.154 445.954C148.556 449.442 163.931 446.051 175.079 437.834C168.472 434.486 160.685 433.529 153.466 435.181C146.245 436.832 139.649 440.067 135.154 445.954Z" fill="#E0E0E0"/>
<path d="M138.13 438.608C145.636 426.371 160.026 418.383 174.364 417.656C172.712 423.488 167.92 428.02 162.513 430.759C157.106 433.498 151.069 434.69 145.119 435.845C142.806 436.297 139.63 436.791 138.13 438.608Z" fill="#E0E0E0"/>
<path d="M132.371 402.967C134.404 396.003 136.447 388.979 137.005 381.747C137.564 374.514 136.531 366.964 132.779 360.756C125.767 374.324 125.057 390.176 132.16 403.696" fill="#E0E0E0"/>
<path d="M155.976 391.037C164.175 376.135 180.903 364.232 197.83 362.563C191.301 378.821 173.494 391.386 155.976 391.037Z" fill="#E0E0E0"/>
<path d="M150.818 393.958C163.046 395.821 173.464 403.63 184.891 408.365C187.335 409.377 189.971 410.184 192.594 409.84C195.217 409.496 197.805 407.736 198.393 405.157C198.881 403.016 197.906 400.742 196.369 399.172C194.832 397.603 192.801 396.622 190.774 395.778C178.327 390.596 164.981 390.467 151.869 393.609" fill="#E0E0E0"/>
<path d="M143.742 402.534C146.51 403.327 147.455 404.761 149.648 406.627C157.085 412.962 166.005 417.544 175.486 419.901C176.473 420.146 177.767 420.244 178.257 419.352C178.684 418.572 178.143 417.629 177.588 416.936C173.616 411.966 167.95 408.566 161.987 406.345C156.023 404.125 150.858 401.448 143.74 402.023" fill="#E0E0E0"/>
<path d="M135.757 350.734C145.7 360.016 159.707 364.78 173.246 363.489C173.862 363.431 174.534 363.333 174.953 362.877C175.896 361.851 174.764 360.266 173.665 359.408C162.643 350.815 149.291 347.252 135.757 350.734Z" fill="#E0E0E0"/>
<path d="M145.224 347.269C158.368 337.415 176.391 334.441 192.005 339.55C186.113 345.356 177.939 348.481 169.713 349.337C161.485 350.194 153.247 349.281 145.224 347.269Z" fill="#E0E0E0"/>
<path d="M141.461 323.467C140.379 312.465 141.082 303.781 140.317 292.728C140.256 291.845 140.066 290.782 139.24 290.465C138.089 290.022 137.13 291.436 136.753 292.609C133.478 302.798 135.269 314.483 141.444 323.224" fill="#E0E0E0"/>
<path d="M140.67 324.682C148.126 320.071 153.72 314.049 158.894 306.97C162.493 302.045 165.528 296.145 164.71 290.1C159.655 289.999 154.852 292.787 151.564 296.628C148.276 300.469 146.322 305.271 144.863 310.111C143.404 314.95 142.381 319.926 140.67 324.682Z" fill="#E0E0E0"/>
<path d="M158.574 319.707C174.94 313.656 190.207 304.652 203.423 293.262C198.066 291.104 191.932 292.396 186.576 294.558C174.339 299.498 164.341 307.835 158.34 319.588" fill="#E0E0E0"/>
<path d="M145.703 330.701C153.982 331.606 162.392 332.195 170.607 330.823C178.681 329.473 186.311 326.273 193.856 323.098C194.48 322.834 195.161 322.519 195.436 321.898C195.733 321.225 195.416 320.404 194.869 319.908C194.323 319.414 193.596 319.178 192.887 318.979C184.685 316.685 175.833 317.759 167.762 320.479C159.692 323.202 153.076 326.435 145.703 330.701Z" fill="#E0E0E0"/>
<path d="M98.4296 351.11C92.781 339.708 93.1482 326.403 98.027 314.651C101.461 319.885 101.881 326.55 101.254 332.779C100.626 339.008 98.7297 345.419 98.6065 351.677" fill="#E0E0E0"/>
<path d="M75.8645 339.73C61.7625 339.46 47.6545 345.47 38.0787 355.826C45.1181 356.932 52.3661 355.116 58.7687 351.991C65.1712 348.864 70.8601 344.478 76.5001 340.124" fill="#E0E0E0"/>
<path d="M60.6938 334.656C53.7947 334.096 47.1567 333.242 40.5223 335.274C33.8892 337.307 27.8514 341.921 25.1479 348.31C31.6005 349.037 38.1445 347.419 44.0591 344.739C49.9737 342.06 55.3514 338.348 60.6938 334.656Z" fill="#E0E0E0"/>
<path d="M83.1564 334.888C76.9503 330.82 70.577 326.679 63.3497 324.996C56.1225 323.312 47.7484 324.555 42.7098 330.003C48.5597 333.436 55.6576 333.841 62.4396 333.836C69.2228 333.831 77.5371 333.754 83.9311 336.017" fill="#E0E0E0"/>
<path d="M83.1931 335.216C72.5827 324.797 68.5604 306.08 72.8292 291.835C81.1691 304.507 84.9047 320.142 83.1931 335.216Z" fill="#E0E0E0"/>
<path d="M112.369 305.694C114.37 301.042 115.778 296.159 117.573 291.424C119.369 286.689 121.6 282.029 124.992 278.269C128.384 274.509 133.075 271.709 138.133 271.457C134.967 285.794 125.445 298.604 112.629 305.769" fill="#E0E0E0"/>
<path d="M107.089 311.845C103.778 307.288 99.9509 301.1 95.4613 297.697C90.9705 294.295 85.1231 292.236 79.6428 293.543C85.2158 303.508 95.7493 310.53 107.089 311.845Z" fill="#E0E0E0"/>
<path d="M108.146 306.074C105.975 300.558 103.789 294.984 102.911 289.122C102.032 283.26 102.567 276.999 105.564 271.886C111.388 282.896 113.265 294.714 108.442 306.198" fill="#E0E0E0"/>
<path d="M112.423 271.886C115.722 260.972 125.716 252.935 136.506 249.247C137.866 248.782 139.307 248.395 140.728 248.614C142.15 248.834 143.543 249.806 143.84 251.212C144.235 253.068 142.701 254.732 141.258 255.966C132.856 263.15 122.98 268.603 112.423 271.886Z" fill="#E0E0E0"/>
<path d="M112.543 262.959C112.962 255.922 113.402 248.782 115.69 242.115C117.979 235.448 122.39 229.193 128.808 226.275C129.9 233.382 126.763 240.454 122.982 246.569C119.2 252.685 114.642 258.458 112.371 265.28" fill="#E0E0E0"/>
<path d="M112.369 267.804C109.643 259.849 109.361 249.746 104.598 242.815C101.269 237.971 95.936 234.672 93.0678 229.541C91.1621 234.333 91.7453 239.853 93.7388 244.61C95.7322 249.367 99.025 253.46 102.551 257.225C106.074 260.99 109.092 263.821 112.369 267.804Z" fill="#E0E0E0"/>
<path d="M112.423 502.052C112.211 502.052 112.028 448.989 112.013 383.547C111.998 318.083 112.158 265.032 112.369 265.032C112.582 265.032 112.765 318.083 112.779 383.547C112.794 448.989 112.634 502.052 112.423 502.052Z" fill="#E0E0E0"/>
<path d="M158.794 343.103C158.809 343.154 158.097 343.418 156.799 343.852C155.366 344.335 153.521 344.957 151.309 345.704C146.679 347.282 140.32 349.565 133.418 352.393C126.584 355.325 120.138 357.705 116.467 360.886C114.634 362.456 113.581 364.154 113.061 365.391C112.534 366.637 112.44 367.399 112.371 367.386C112.345 367.382 112.352 367.192 112.394 366.83C112.455 366.472 112.546 365.938 112.783 365.283C113.231 363.974 114.254 362.158 116.107 360.48C117.952 358.797 120.52 357.286 123.463 355.911C126.404 354.538 129.665 353.105 133.128 351.683C140.051 348.846 146.46 346.636 151.142 345.188C153.482 344.458 155.391 343.92 156.715 343.565C158.039 343.22 158.778 343.052 158.794 343.103Z" fill="#E0E0E0"/>
<path d="M173.993 305.769C174.01 305.788 173.817 305.993 173.434 306.365C172.983 306.79 172.419 307.318 171.731 307.965C170.15 309.402 167.998 311.356 165.375 313.739C159.886 318.626 152.443 325.253 144.217 332.577C135.958 339.929 128.822 346.952 123.875 352.241C121.399 354.882 119.448 357.07 118.118 358.597C117.497 359.307 116.988 359.887 116.581 360.353C116.225 360.75 116.027 360.952 116.006 360.935C115.985 360.919 116.143 360.684 116.46 360.255C116.781 359.828 117.249 359.192 117.889 358.406C119.151 356.816 121.045 354.569 123.476 351.872C128.333 346.475 135.431 339.369 143.706 332.004C151.994 324.669 159.535 318.081 165.015 313.331C167.705 311.023 169.911 309.131 171.532 307.739C172.259 307.136 172.853 306.643 173.33 306.248C173.749 305.915 173.976 305.749 173.993 305.769Z" fill="#E0E0E0"/>
<path d="M135.302 340.053C135.086 339.957 136.811 335.973 138.53 330.935C140.265 325.897 141.081 321.646 141.302 321.682C141.502 321.703 141.014 326.078 139.257 331.181C138.393 333.729 137.439 335.969 136.688 337.558C135.936 339.148 135.396 340.095 135.302 340.053Z" fill="#E0E0E0"/>
<path d="M112.472 372.17C112.429 372.2 111.978 371.673 111.199 370.692C110.336 369.584 109.243 368.184 107.94 366.511C105.201 362.971 101.415 358.085 97.1718 352.737C92.925 347.389 89.0259 342.593 86.2004 339.122C84.8681 337.473 83.7518 336.091 82.8686 334.999C82.0902 334.018 81.6791 333.459 81.7193 333.424C81.7596 333.39 82.2476 333.882 83.0955 334.805C83.9458 335.726 85.1487 337.081 86.6152 338.773C89.5493 342.158 93.5204 346.906 97.7733 352.26C102.021 357.615 105.745 362.56 108.374 366.186C109.689 367.998 110.737 369.478 111.441 370.514C112.144 371.551 112.515 372.139 112.472 372.17Z" fill="#E0E0E0"/>
<path d="M102.304 359.117C102.179 359.251 99.4666 356.033 98.0453 351.143C96.9973 347.696 96.9497 344.544 97.0791 343.103L97.4182 343.13C97.2669 343.745 97.1559 344.068 97.0949 344.058C97.0352 344.049 97.0315 343.706 97.0815 343.075L97.4207 343.103C97.5451 344.533 97.7611 347.576 98.781 350.923C100.152 355.663 102.509 358.988 102.304 359.117Z" fill="#E0E0E0"/>
<path d="M89.1772 342.605C89.0783 342.711 88.206 341.611 86.2028 340.878C84.2166 340.109 81.2264 339.941 77.9458 340.221C74.6628 340.463 71.7299 341.047 69.6315 341.563C67.5319 342.083 66.2497 342.492 66.2106 342.385C66.1753 342.294 67.3965 341.703 69.4863 341.041C71.5725 340.385 74.5457 339.703 77.8885 339.457C81.2057 339.17 84.3533 339.426 86.4065 340.375C88.4878 341.297 89.2467 342.587 89.1772 342.605Z" fill="#E0E0E0"/>
<path d="M86.0662 338.604C86.0076 338.723 84.3338 337.91 81.5095 336.945C78.6913 335.975 74.675 334.957 70.1415 334.605C65.6056 334.267 61.482 334.663 58.5491 335.194C55.6113 335.72 53.8338 336.27 53.7935 336.143C53.7777 336.093 54.2071 335.912 55.0013 335.628C55.7919 335.333 56.9692 334.996 58.4417 334.662C61.3844 333.987 65.5812 333.494 70.1989 333.84C74.8141 334.198 78.8877 335.322 81.6937 336.435C83.0991 336.987 84.2118 337.5 84.9487 337.911C85.6929 338.313 86.0906 338.556 86.0662 338.604Z" fill="#E0E0E0"/>
<path d="M112.369 321.682C112.164 321.735 110.676 316.567 109.047 310.141C107.417 303.713 106.262 298.462 106.468 298.41C106.673 298.357 108.16 303.525 109.791 309.952C111.42 316.378 112.574 321.63 112.369 321.682Z" fill="#E0E0E0"/>
<path d="M112.58 321.682C112.352 321.757 111.396 318.303 108.897 314.772C106.466 311.166 103.363 309.357 103.477 309.179C103.517 309.098 104.373 309.413 105.569 310.257C106.767 311.09 108.248 312.504 109.526 314.332C112.118 318.006 112.767 321.669 112.58 321.682Z" fill="#E0E0E0"/>
<path d="M112.423 473.765C112.34 473.777 112.184 472.489 111.586 470.236C110.996 467.982 109.882 464.787 108.041 461.049C104.375 453.557 97.7037 444.058 89.2272 434.543C85.0267 429.744 80.9519 425.218 77.4932 420.883C74.0284 416.554 71.1809 412.43 69.1021 408.781C67.0171 405.135 65.6592 402.007 64.8662 399.8C64.477 398.694 64.1916 397.83 64.0342 397.232C63.8658 396.638 63.7902 396.323 63.8158 396.316C63.8841 396.294 64.2709 397.53 65.1444 399.693C66.0179 401.855 67.4404 404.924 69.5693 408.507C71.6921 412.094 74.564 416.157 78.0422 420.439C81.5143 424.728 85.5965 429.231 89.803 434.038C98.3015 443.577 104.958 453.197 108.528 460.812C110.322 464.613 111.369 467.87 111.874 470.164C112.12 471.313 112.285 472.208 112.344 472.826C112.422 473.439 112.449 473.761 112.423 473.765Z" fill="#E0E0E0"/>
<path d="M154.325 426.436C154.351 426.493 153.548 426.899 152.129 427.669C150.72 428.46 148.722 429.679 146.433 431.434C144.143 433.187 141.582 435.489 138.952 438.257C136.326 441.031 133.622 444.252 130.861 447.704C125.342 454.628 120.18 460.756 117.09 465.647C115.521 468.073 114.379 470.119 113.632 471.553C112.878 472.984 112.479 473.79 112.423 473.764C112.399 473.753 112.469 473.539 112.627 473.141C112.79 472.745 113.012 472.152 113.365 471.42C114.033 469.938 115.109 467.838 116.632 465.357C119.633 460.348 124.755 454.137 130.264 447.223C133.03 443.765 135.768 440.537 138.443 437.768C141.124 435.003 143.751 432.716 146.108 430.999C148.466 429.28 150.53 428.119 151.991 427.404C152.718 427.039 153.313 426.815 153.705 426.645C154.102 426.485 154.314 426.412 154.325 426.436Z" fill="#E0E0E0"/>
<path d="M155.145 441.791C155.155 441.902 153.372 442.118 150.503 442.466C147.644 442.836 143.664 443.314 139.495 444.634C135.341 445.987 131.888 448.048 129.638 449.807C127.367 451.562 126.296 453.015 126.189 452.93C126.153 452.903 126.375 452.508 126.876 451.861C127.373 451.211 128.185 450.342 129.294 449.386C131.507 447.478 134.994 445.293 139.258 443.903C143.529 442.551 147.564 442.159 150.448 441.926C153.344 441.716 155.136 441.691 155.145 441.791Z" fill="#E0E0E0"/>
<path d="M127.544 451.243C127.301 451.105 129.393 447.91 131.016 443.613C132.538 439.276 132.895 435.473 133.168 435.517C133.267 435.529 133.263 436.479 133.091 438.007C132.909 439.529 132.543 441.645 131.737 443.874C130.926 446.099 129.862 447.96 129.044 449.255C128.218 450.548 127.63 451.295 127.544 451.243Z" fill="#E0E0E0"/>
<path d="M167.895 385.216C167.905 385.241 167.649 385.376 167.152 385.612C166.576 385.874 165.855 386.201 164.971 386.603C164.016 387.013 162.855 387.533 161.549 388.222C160.237 388.898 158.707 389.596 157.114 390.553C156.305 391.013 155.46 391.493 154.581 391.992C153.704 392.497 152.834 393.096 151.911 393.676C150.044 394.808 148.174 396.202 146.178 397.626C142.273 400.591 138.165 404.099 134.211 408.151C130.295 412.243 126.928 416.468 124.098 420.473C122.744 422.517 121.413 424.433 120.346 426.338C119.799 427.281 119.229 428.17 118.755 429.064C118.286 429.96 117.835 430.82 117.403 431.645C116.502 433.27 115.857 434.823 115.225 436.156C114.581 437.485 114.102 438.662 113.725 439.631C113.354 440.527 113.05 441.261 112.809 441.845C112.591 442.349 112.465 442.61 112.439 442.601C112.413 442.593 112.491 442.315 112.662 441.794C112.87 441.195 113.128 440.443 113.445 439.525C113.781 438.536 114.221 437.338 114.831 435.987C115.428 434.63 116.042 433.053 116.918 431.403C117.338 430.566 117.778 429.693 118.234 428.784C118.698 427.876 119.257 426.974 119.797 426.017C120.848 424.086 122.167 422.142 123.517 420.072C126.335 416.014 129.713 411.742 133.66 407.618C137.644 403.533 141.799 400.012 145.757 397.058C147.78 395.639 149.676 394.254 151.57 393.138C152.509 392.567 153.391 391.976 154.281 391.482C155.173 390.994 156.032 390.526 156.853 390.077C158.472 389.145 160.027 388.479 161.363 387.836C162.694 387.181 163.877 386.699 164.853 386.33C165.761 385.981 166.502 385.697 167.095 385.469C167.611 385.279 167.887 385.192 167.895 385.216Z" fill="#E0E0E0"/>
<path d="M134.733 407.436C134.666 407.425 135.035 406.137 136.556 404.72C138.041 403.306 140.749 401.996 143.903 401.901C147.047 401.818 149.773 402.698 151.635 403.411C153.507 404.147 154.595 404.742 154.558 404.831C154.514 404.938 153.349 404.518 151.457 403.924C149.572 403.347 146.908 402.587 143.928 402.667C140.96 402.759 138.397 403.902 136.911 405.13C135.391 406.355 134.855 407.511 134.733 407.436Z" fill="#E0E0E0"/>
<path d="M129.776 412.549C129.565 412.432 131.437 409.689 131.862 405.762C132.353 401.84 131.163 398.742 131.395 398.677C131.479 398.641 131.897 399.363 132.257 400.653C132.619 401.938 132.859 403.808 132.624 405.85C132.382 407.891 131.719 409.657 131.069 410.823C130.422 411.996 129.849 412.603 129.776 412.549Z" fill="#E0E0E0"/>
<path d="M75.7742 481.368C76.9174 501.647 83.0284 522.27 92.4272 543.121H133.301C142.264 522.477 147.953 501.885 148.964 481.368H75.7742Z" fill="#E0E0E0"/>
<path d="M142.34 514.183C142.34 514.395 128.882 514.566 112.285 514.566C95.6822 514.566 82.228 514.394 82.228 514.183C82.228 513.97 95.6822 513.799 112.285 513.799C128.883 513.799 142.34 513.971 142.34 514.183Z" fill="#FAFAFA"/>
<path d="M141.427 521.529C141.427 521.742 128.811 521.912 113.251 521.912C97.6866 521.912 85.0731 521.74 85.0731 521.529C85.0731 521.318 97.6866 521.146 113.251 521.146C128.81 521.145 141.427 521.317 141.427 521.529Z" fill="#FAFAFA"/>
<path d="M93.0872 494.683C93.2995 494.683 93.4703 498.898 93.4703 504.098C93.4703 509.299 93.2983 513.513 93.0872 513.513C92.875 513.513 92.7042 509.299 92.7042 504.098C92.7042 498.898 92.875 494.683 93.0872 494.683Z" fill="#FAFAFA"/>
<path d="M114.986 494.683C115.199 494.683 115.369 499.048 115.369 504.432C115.369 509.819 115.197 514.182 114.986 514.182C114.774 514.182 114.603 509.819 114.603 504.432C114.603 499.048 114.775 494.683 114.986 494.683Z" fill="#FAFAFA"/>
<path d="M135.546 494.517C135.758 494.517 135.929 498.97 135.929 504.462C135.929 509.955 135.757 514.406 135.546 514.406C135.333 514.406 135.163 509.954 135.163 504.462C135.163 498.97 135.333 494.517 135.546 494.517Z" fill="#FAFAFA"/>
<path d="M147.666 494.683C147.666 494.896 131.882 495.066 112.416 495.066C92.9421 495.066 77.1614 494.894 77.1614 494.683C77.1614 494.471 92.9421 494.3 112.416 494.3C131.883 494.299 147.666 494.471 147.666 494.683Z" fill="#FAFAFA"/>
<path d="M568.68 543.475C568.68 543.65 450.617 543.792 305.013 543.792C159.359 543.792 41.3214 543.649 41.3214 543.475C41.3214 543.3 159.359 543.157 305.013 543.157C450.617 543.157 568.68 543.299 568.68 543.475Z" fill="#263238"/>
<path d="M453.351 233.608C450.852 233.263 448.6 234.429 447.409 236.138C446.219 237.848 445.941 240.02 445.989 242.171C446.032 244.062 446.35 246.079 447.629 247.802C449.149 249.849 451.859 251.164 454.471 251.529C457.083 251.892 459.603 251.41 461.852 250.603C462.435 248.152 461.821 245.092 461.271 242.468C460.875 240.578 460.199 238.648 458.881 236.973C457.565 235.299 455.521 233.908 453.351 233.608Z" fill="#4DA9EC"/>
<path d="M507.343 227.894C507.364 227.901 507.282 228.192 507.109 228.74C506.909 229.345 506.646 230.137 506.321 231.124C505.612 233.185 504.636 236.186 503.492 239.909C502.336 243.63 501.077 248.096 499.796 253.084C498.546 258.08 497.29 263.602 496.176 269.439C495.085 275.283 494.242 280.884 493.585 285.992C492.961 291.104 492.505 295.722 492.225 299.609C491.935 303.493 491.749 306.643 491.658 308.821C491.601 309.859 491.558 310.693 491.523 311.328C491.486 311.902 491.455 312.202 491.433 312.202C491.411 312.202 491.399 311.899 491.395 311.326C491.399 310.689 491.404 309.853 491.411 308.814C491.426 306.631 491.543 303.475 491.777 299.58C492 295.683 492.41 291.051 493.004 285.923C493.63 280.799 494.459 275.181 495.553 269.322C496.669 263.47 497.945 257.939 499.23 252.939C500.545 247.948 501.852 243.485 503.063 239.775C504.265 236.063 505.307 233.08 506.089 231.042C506.462 230.071 506.761 229.292 506.991 228.696C507.2 228.162 507.322 227.886 507.343 227.894Z" fill="#263238"/>
<path d="M458.521 245.269C458.54 245.258 458.702 245.491 458.993 245.947C459.313 246.462 459.727 247.128 460.24 247.956C461.322 249.701 462.801 252.281 464.542 255.514C466.293 258.742 468.241 262.661 470.264 267.078C472.255 271.507 474.304 276.442 476.222 281.71C478.117 286.989 479.698 292.095 480.999 296.775C482.267 301.464 483.275 305.722 483.992 309.325C484.721 312.924 485.233 315.852 485.517 317.886C485.652 318.851 485.76 319.627 485.843 320.227C485.91 320.762 485.936 321.045 485.914 321.049C485.892 321.053 485.825 320.776 485.716 320.246C485.603 319.652 485.455 318.882 485.273 317.926C484.916 315.907 484.337 312.997 483.553 309.418C482.781 305.836 481.731 301.599 480.435 296.931C479.106 292.273 477.514 287.188 475.624 281.926C473.713 276.674 471.686 271.748 469.729 267.317C467.742 262.9 465.841 258.971 464.144 255.723C462.457 252.47 461.042 249.862 460.027 248.081C459.556 247.229 459.176 246.542 458.884 246.013C458.627 245.536 458.503 245.28 458.521 245.269Z" fill="#263238"/>
<path d="M502.562 307.989H476.048C475.312 307.989 474.715 307.392 474.715 306.657V306.579C474.715 305.843 475.312 305.248 476.048 305.248H502.562C503.298 305.248 503.893 305.844 503.893 306.579V306.657C503.893 307.392 503.298 307.989 502.562 307.989Z" fill="#263238"/>
<path d="M513.419 336.05C512.448 325.369 504.032 323.912 502.414 322.779C502.068 322.536 501.758 322.226 501.486 321.89C500.471 320.635 499.988 319.034 499.988 317.42V306.616H489.874H488.982H478.868V317.42C478.868 319.032 478.385 320.635 477.37 321.888C477.098 322.225 476.788 322.535 476.442 322.778C474.823 323.911 466.409 325.367 465.437 336.049C464.466 346.73 460.906 371.006 467.217 378.773C473.032 385.93 478.712 386.356 488.173 386.379C488.6 386.379 489.016 386.38 489.429 386.38C489.841 386.38 490.257 386.38 490.684 386.38C500.145 386.358 505.825 385.93 511.64 378.773C517.95 371.007 514.389 346.731 513.419 336.05Z" fill="#263238"/>
<path d="M503.222 308.07C503.222 308.245 496.99 308.387 489.305 308.387C481.617 308.387 475.388 308.244 475.388 308.07C475.388 307.895 481.618 307.752 489.305 307.752C496.99 307.752 503.222 307.894 503.222 308.07Z" fill="#263238"/>
<path d="M520.154 219.682C519.201 217.259 516.666 215.712 514.086 215.367C511.506 215.021 508.891 215.706 506.476 216.679C504.353 217.534 502.236 218.695 500.971 220.602C499.466 222.87 499.433 225.904 500.426 228.438C501.419 230.972 503.322 233.058 505.45 234.755C508.544 234.228 511.686 232.348 514.367 230.714C516.297 229.537 518.123 228.089 519.314 226.167C520.504 224.246 520.983 221.786 520.154 219.682Z" fill="#4DA9EC"/>
<path d="M452.028 272.716C450.899 271.011 451.045 268.683 451.986 266.866C452.926 265.05 454.545 263.676 456.259 262.56C457.767 261.58 459.467 260.74 461.265 260.785C463.402 260.838 465.37 262.184 466.554 263.965C467.737 265.746 468.223 267.911 468.356 270.046C466.622 271.8 463.997 272.975 461.737 273.963C460.11 274.676 458.354 275.198 456.581 275.099C454.808 274.999 453.009 274.197 452.028 272.716Z" fill="#4DA9EC"/>
<path d="M480.718 259.483C479.588 257.777 479.735 255.45 480.675 253.633C481.616 251.817 483.235 250.442 484.949 249.327C486.456 248.347 488.156 247.506 489.954 247.551C492.092 247.605 494.06 248.951 495.243 250.732C496.427 252.513 496.912 254.677 497.045 256.812C495.312 258.567 492.686 259.742 490.427 260.73C488.799 261.442 487.044 261.965 485.271 261.864C483.497 261.766 481.699 260.964 480.718 259.483Z" fill="#4DA9EC"/>
<path d="M518.631 257.422C519.993 255.861 520.158 253.501 519.457 251.551C518.755 249.6 517.312 248.002 515.738 246.652C514.355 245.465 512.759 244.394 510.947 244.199C508.793 243.967 506.636 245.055 505.208 246.686C503.781 248.318 503.004 250.427 502.584 252.553C504.091 254.548 506.572 256.079 508.71 257.375C510.249 258.308 511.943 259.068 513.738 259.205C515.533 259.343 517.447 258.779 518.631 257.422Z" fill="#4DA9EC"/>
<path d="M479.035 242.512C478.622 240.114 477.107 238.475 475.46 237.993C473.813 237.511 472.056 238.023 470.405 238.827C468.953 239.533 467.48 240.534 466.496 242.305C465.326 244.412 465.047 247.344 465.476 249.851C465.906 252.358 466.965 254.483 468.203 256.246C470.258 255.913 472.458 254.275 474.338 252.849C475.693 251.821 477.002 250.524 477.939 248.735C478.874 246.944 479.394 244.593 479.035 242.512Z" fill="#4DA9EC"/>
<path d="M491.794 227.402C489.296 227.057 487.044 228.223 485.853 229.932C484.662 231.641 484.384 233.814 484.433 235.965C484.475 237.856 484.794 239.873 486.072 241.595C487.593 243.644 490.302 244.958 492.914 245.322C495.526 245.687 498.047 245.205 500.295 244.396C500.878 241.945 500.265 238.886 499.714 236.261C499.318 234.372 498.642 232.442 497.326 230.768C496.008 229.092 493.965 227.701 491.794 227.402Z" fill="#4DA9EC"/>
<path d="M468.884 246.207C468.979 246.222 468.851 247.421 468.712 249.357C468.573 251.293 468.453 253.971 468.593 256.921C468.739 259.872 469.14 262.52 469.529 264.418C469.915 266.316 470.238 267.479 470.142 267.509C470.071 267.534 469.595 266.415 469.091 264.52C468.585 262.628 468.105 259.945 467.958 256.954C467.815 253.963 468.009 251.253 468.264 249.314C468.52 247.372 468.805 246.195 468.884 246.207Z" fill="#263238"/>
<path d="M474.641 278.012C474.471 278.089 473.4 275.731 471.256 273.428C470.197 272.273 469.11 271.358 468.265 270.783C467.427 270.195 466.827 269.977 466.854 269.88C466.867 269.805 467.555 269.881 468.498 270.397C469.444 270.899 470.627 271.801 471.724 272.997C473.953 275.397 474.802 277.972 474.641 278.012Z" fill="#263238"/>
<path d="M496.486 256.191C496.641 256.137 497.378 258.047 497.511 260.543C497.658 263.039 497.138 265.019 496.978 264.983C496.794 264.952 497.021 262.989 496.877 260.579C496.751 258.169 496.307 256.243 496.486 256.191Z" fill="#263238"/>
<path d="M503.98 250.502C504.124 250.603 502.924 252.573 501.302 254.903C499.678 257.233 498.247 259.041 498.102 258.94C497.958 258.84 499.157 256.87 500.78 254.539C502.403 252.209 503.836 250.402 503.98 250.502Z" fill="#263238"/>
<path d="M500.026 250.054C499.85 250.045 499.79 248.341 499.893 246.246C499.994 244.151 500.22 242.46 500.394 242.469C500.57 242.477 500.628 244.182 500.527 246.277C500.425 248.371 500.2 250.062 500.026 250.054Z" fill="#263238"/>
<path d="M467.637 354.865C467.554 354.871 467.36 353.341 467.221 350.855C467.082 348.37 467.02 344.924 467.193 341.128C467.292 339.228 467.378 337.425 467.618 335.772C467.858 334.124 468.35 332.648 469.052 331.574C469.743 330.493 470.565 329.814 471.187 329.472C471.811 329.124 472.207 329.062 472.217 329.094C472.294 329.188 470.666 329.667 469.437 331.807C468.823 332.849 468.401 334.249 468.198 335.855C467.997 337.459 467.926 339.271 467.829 341.157C467.657 344.935 467.648 348.361 467.671 350.841C467.693 353.322 467.729 354.859 467.637 354.865Z" fill="#263238"/>
<path d="M430.323 543.993C429.965 543.993 429.599 543.941 429.234 543.832C427.637 543.356 426.605 541.974 426.605 540.307V497.382H427.564V540.307C427.564 541.804 428.61 542.646 429.507 542.912C430.405 543.18 431.741 543.045 432.558 541.792L461.707 497.119L462.511 497.644L433.361 542.317C432.658 543.393 431.534 543.993 430.323 543.993Z" fill="#263238"/>
<path d="M546.082 543.993C544.872 543.993 543.747 543.393 543.044 542.317L513.895 497.644L514.699 497.119L543.848 541.792C544.665 543.045 546.002 543.182 546.899 542.912C547.796 542.646 548.843 541.803 548.843 540.307V497.382H549.802V540.307C549.802 541.973 548.769 543.357 547.172 543.832C546.806 543.941 546.44 543.993 546.082 543.993Z" fill="#263238"/>
<path d="M568.428 385.591H418.742V501.838H568.428V385.591Z" fill="#AE7461"/>
<path d="M523.558 438.051C523.558 438.051 523.55 437.793 523.546 437.304C523.542 436.804 523.539 436.083 523.533 435.137C523.525 433.224 523.515 430.417 523.502 426.783C523.486 419.512 523.463 408.942 523.434 395.685L523.559 395.85C500.311 395.87 465.653 395.901 427.032 395.935H427.026L427.217 395.685C427.215 410.41 427.212 424.693 427.211 438.051L427.026 437.809C454.81 437.854 478.917 437.893 496.09 437.921C504.682 437.951 511.537 437.974 516.256 437.99C518.61 438.003 520.429 438.014 521.671 438.02C522.282 438.026 522.749 438.032 523.075 438.036C523.391 438.04 523.558 438.051 523.558 438.051C523.558 438.051 523.406 438.061 523.097 438.065C522.776 438.069 522.316 438.074 521.715 438.081C520.483 438.089 518.677 438.098 516.341 438.112C511.631 438.128 504.791 438.151 496.217 438.18C479.012 438.208 454.86 438.247 427.026 438.292H426.84V438.051C426.838 424.694 426.837 410.41 426.834 395.685V395.435H427.026H427.032C465.652 395.469 500.31 395.5 523.559 395.52H523.686V395.685C523.657 408.983 523.634 419.587 523.617 426.882C523.603 430.5 523.592 433.294 523.586 435.198C523.58 436.13 523.576 436.843 523.573 437.336C523.567 437.814 523.558 438.051 523.558 438.051Z" fill="#263238"/>
<path d="M523.558 488.294C523.558 488.294 523.55 488.036 523.546 487.547C523.542 487.047 523.539 486.325 523.533 485.381C523.525 483.468 523.515 480.66 523.502 477.026C523.486 469.755 523.463 459.185 523.434 445.928L523.559 446.093C500.311 446.114 465.653 446.144 427.032 446.178H427.026L427.217 445.928C427.215 460.654 427.212 474.936 427.211 488.294L427.026 488.052C454.81 488.097 478.917 488.137 496.09 488.165C504.682 488.194 511.537 488.217 516.256 488.233C518.61 488.246 520.429 488.257 521.671 488.265C522.282 488.271 522.749 488.277 523.075 488.279C523.391 488.283 523.558 488.294 523.558 488.294C523.558 488.294 523.406 488.304 523.097 488.31C522.776 488.313 522.316 488.318 521.715 488.324C520.483 488.332 518.677 488.341 516.341 488.356C511.631 488.372 504.791 488.395 496.217 488.424C479.012 488.453 454.86 488.492 427.026 488.537H426.84V488.295C426.838 474.937 426.837 460.655 426.834 445.929V445.679H427.026H427.032C465.652 445.713 500.31 445.744 523.559 445.765H523.686V445.929C523.657 459.227 523.634 469.832 523.617 477.126C523.603 480.745 523.592 483.538 523.586 485.444C523.58 486.376 523.576 487.089 523.573 487.583C523.567 488.057 523.558 488.294 523.558 488.294Z" fill="#263238"/>
<path d="M455.51 395.435L458.646 399.805H494.593L498.167 395.435H455.51Z" fill="#263238"/>
<path d="M455.643 445.678L458.779 450.048H494.726L498.3 445.678H455.643Z" fill="#263238"/>
<path d="M568.428 385.591H533.944V501.838H568.428V385.591Z" fill="#6F4439"/>
<path d="M267.935 187.041C271.071 167.889 258.087 149.821 238.935 146.685C219.783 143.549 201.714 156.532 198.578 175.685C195.442 194.837 208.426 212.905 227.578 216.041C246.73 219.177 264.798 206.194 267.935 187.041Z" fill="white"/>
<path d="M268.394 181.38C268.382 181.38 268.361 181.187 268.329 180.811C268.3 180.404 268.261 179.851 268.211 179.145C268.188 178.775 268.161 178.366 268.133 177.917C268.084 177.469 267.985 176.982 267.905 176.452C267.734 175.395 267.572 174.167 267.164 172.833C266.539 170.124 265.265 166.924 263.26 163.535C261.24 160.159 258.328 156.635 254.366 153.644C250.417 150.682 245.436 148.163 239.687 147.147C233.978 146.167 227.532 146.345 221.396 148.678C219.834 149.178 218.365 149.951 216.856 150.675C215.426 151.54 213.92 152.337 212.59 153.419C211.175 154.39 209.939 155.606 208.643 156.776C207.473 158.072 206.243 159.341 205.234 160.811C203.164 163.686 201.356 166.883 200.262 170.396C199.127 173.889 198.517 177.598 198.467 181.374C198.517 185.15 199.126 188.861 200.261 192.355C201.354 195.871 203.163 199.067 205.233 201.944C206.242 203.415 207.472 204.684 208.643 205.98C209.939 207.15 211.176 208.366 212.591 209.337C213.922 210.42 215.429 211.217 216.859 212.082C218.368 212.807 219.837 213.579 221.398 214.08C227.536 216.412 233.983 216.59 239.692 215.611C245.441 214.594 250.423 212.075 254.371 209.113C258.333 206.123 261.243 202.597 263.264 199.221C265.268 195.832 266.542 192.632 267.167 189.924C267.574 188.59 267.736 187.363 267.907 186.305C267.988 185.776 268.085 185.289 268.135 184.84C268.163 184.391 268.19 183.982 268.213 183.612C268.263 182.906 268.304 182.353 268.332 181.946C268.361 181.573 268.382 181.38 268.394 181.38C268.406 181.38 268.409 181.573 268.401 181.95C268.389 182.358 268.373 182.913 268.351 183.623C268.338 183.996 268.322 184.407 268.305 184.858C268.267 185.311 268.179 185.801 268.108 186.335C267.958 187.403 267.816 188.641 267.425 189.992C266.836 192.731 265.589 195.976 263.594 199.422C261.584 202.854 258.663 206.447 254.666 209.506C250.682 212.535 245.636 215.121 239.795 216.18C233.995 217.203 227.436 217.043 221.176 214.685C219.584 214.178 218.086 213.396 216.546 212.661C215.087 211.785 213.551 210.973 212.192 209.874C210.749 208.886 209.485 207.651 208.164 206.458C206.967 205.141 205.713 203.847 204.682 202.349C202.566 199.419 200.72 196.159 199.602 192.575C198.443 189.012 197.821 185.225 197.771 181.375C197.821 177.526 198.445 173.741 199.604 170.18C200.724 166.597 202.569 163.338 204.684 160.409C205.715 158.912 206.969 157.62 208.166 156.302C209.487 155.11 210.751 153.875 212.195 152.887C213.554 151.788 215.09 150.976 216.549 150.1C218.087 149.365 219.587 148.584 221.177 148.076C227.436 145.719 233.995 145.558 239.793 146.581C245.634 147.638 250.681 150.225 254.665 153.254C258.663 156.311 261.584 159.904 263.594 163.337C265.589 166.784 266.837 170.029 267.426 172.768C267.817 174.117 267.96 175.357 268.11 176.424C268.18 176.959 268.267 177.449 268.306 177.902C268.323 178.353 268.338 178.765 268.352 179.136C268.373 179.846 268.39 180.401 268.402 180.81C268.409 181.187 268.406 181.38 268.394 181.38Z" fill="#263238"/>
<path d="M222.854 184.63C225.134 184.63 226.983 182.781 226.983 180.5C226.983 178.22 225.134 176.371 222.854 176.371C220.573 176.371 218.724 178.22 218.724 180.5C218.724 182.781 220.573 184.63 222.854 184.63Z" fill="#4DA9EC"/>
<path d="M233.88 184.63C236.161 184.63 238.01 182.781 238.01 180.5C238.01 178.22 236.161 176.371 233.88 176.371C231.599 176.371 229.75 178.22 229.75 180.5C229.75 182.781 231.599 184.63 233.88 184.63Z" fill="#4DA9EC"/>
<path d="M249.036 180.5C249.036 182.78 247.188 184.63 244.906 184.63C242.626 184.63 240.777 182.782 240.777 180.5C240.777 178.22 242.625 176.371 244.906 176.371C247.188 176.371 249.036 178.219 249.036 180.5Z" fill="#4DA9EC"/>
<path d="M284.71 189.013C284.71 191.725 282.512 193.924 279.8 193.924C277.088 193.924 274.889 191.725 274.889 189.013C274.889 186.301 277.088 184.103 279.8 184.103C282.512 184.103 284.71 186.301 284.71 189.013Z" fill="white"/>
<path d="M284.71 189.013C284.647 189.016 284.643 188.577 284.425 187.847C284.21 187.131 283.704 186.094 282.622 185.306C281.575 184.515 279.873 184.083 278.237 184.703C276.614 185.272 275.22 186.999 275.238 189.013C275.22 191.028 276.614 192.755 278.237 193.325C279.873 193.943 281.576 193.513 282.623 192.721C283.705 191.933 284.211 190.895 284.426 190.18C284.643 189.45 284.647 189.011 284.71 189.013C284.742 189.011 284.833 189.453 284.688 190.246C284.543 191.02 284.076 192.187 282.92 193.113C281.805 194.039 279.9 194.597 278.019 193.928C276.154 193.318 274.52 191.339 274.543 189.015C274.521 186.692 276.156 184.712 278.019 184.103C279.9 183.433 281.805 183.991 282.92 184.917C284.076 185.843 284.544 187.008 284.688 187.784C284.833 188.574 284.742 189.017 284.71 189.013Z" fill="#263238"/>
<path d="M376.969 435.225L408.915 543.993H399.936L355.883 434.464L376.969 435.225Z" fill="#6F4439"/>
<path d="M298.574 435.225L330.52 542.956H321.54L277.487 434.464L298.574 435.225Z" fill="#6F4439"/>
<path d="M201.241 435.225L172.279 542.956H181.259L222.328 434.464L201.241 435.225Z" fill="#AE7461"/>
<path d="M295.05 435.225L267.595 542.956H276.574L316.137 434.464L295.05 435.225Z" fill="#AE7461"/>
<path d="M183.927 388.051C183.927 388.051 181.426 355.259 186.428 345.899C191.429 336.539 239.44 317.535 239.44 317.535C239.44 317.535 272.402 265.524 294.429 254.521C316.456 243.518 402.476 245.019 414.978 262.023C427.481 279.027 413.478 323.537 406.976 350.543L383.47 416.557L376.969 435.224H197.93L183.927 388.051Z" fill="#263238"/>
<path d="M406.925 261.491C406.935 261.488 406.984 261.602 407.063 261.83C407.142 262.058 407.257 262.4 407.386 262.855C407.651 263.762 408.006 265.113 408.36 266.882C409.054 270.412 409.786 275.644 409.474 282.168C409.319 285.43 408.816 288.974 408.243 292.777C407.662 296.58 406.968 300.642 406.192 304.924C404.641 313.489 402.792 322.938 400.718 332.931L400.687 333.08L400.552 333.148C397.868 334.5 395.032 335.934 392.132 337.337C371.812 347.261 352.753 354.8 338.796 359.743C331.818 362.218 326.117 364.069 322.168 365.311C320.216 365.904 318.687 366.367 317.606 366.695C317.109 366.838 316.716 366.952 316.414 367.038C316.145 367.111 316.006 367.144 316.002 367.135C315.998 367.124 316.133 367.071 316.395 366.976C316.69 366.875 317.078 366.742 317.567 366.573C318.64 366.218 320.156 365.716 322.091 365.075C326.016 363.761 331.69 361.848 338.644 359.321C352.551 354.275 371.558 346.679 391.853 336.766C394.749 335.365 397.582 333.934 400.264 332.585L400.098 332.801C402.179 322.817 404.051 313.375 405.635 304.823C406.428 300.547 407.142 296.492 407.745 292.7C408.34 288.907 408.865 285.378 409.048 282.146C409.415 275.67 408.753 270.456 408.13 266.925C407.812 265.157 407.496 263.801 407.269 262.887C407.158 262.456 407.07 262.113 407.003 261.849C406.944 261.614 406.915 261.495 406.925 261.491Z" fill="#263238"/>
<path d="M207.036 414.86C207.21 414.83 208.111 419.366 209.049 424.989C209.988 430.615 210.609 435.196 210.435 435.225C210.262 435.254 209.362 430.72 208.422 425.094C207.484 419.471 206.864 414.889 207.036 414.86Z" fill="#263238"/>
<path d="M299.722 434.464C299.549 434.435 301.547 421.904 304.185 406.481C306.823 391.053 309.1 378.573 309.274 378.603C309.447 378.632 307.449 391.159 304.811 406.588C302.174 422.013 299.895 434.494 299.722 434.464Z" fill="#263238"/>
<path d="M84.0727 443.437L59.4628 474.582C59.4628 474.582 19.5408 460.028 14.4326 465.341L73.1061 515.227L113.443 468.273L84.0727 443.437Z" fill="#263238"/>
<path d="M79.7673 487.466C80.6396 488.742 80.3383 490.685 79.0987 491.609C77.8604 492.532 75.8804 492.243 74.9873 490.982C74.0931 489.721 74.3822 487.378 75.7181 486.598C77.0528 485.82 79.3586 486.286 79.9235 487.724" fill="#E0E0E0"/>
<path d="M73.1061 515.225L76.9869 510.333L19.2809 464.333C19.2809 464.333 15.7026 463.249 14.4338 465.34L73.1061 515.225Z" fill="#4DA9EC"/>
<path d="M58.765 473.475C58.5307 473.77 59.8532 475.118 60.4791 477.237C61.1611 479.34 60.8329 481.2 61.1928 481.311C61.5039 481.479 62.5336 479.404 61.7296 476.85C60.95 474.29 58.9272 473.16 58.765 473.475Z" fill="white"/>
<path d="M50.447 470.788C50.1457 471.01 50.9728 472.552 50.9155 474.591C50.9179 476.632 50.0493 478.151 50.3457 478.38C50.5763 478.655 52.2014 477.146 52.2233 474.608C52.2697 472.073 50.6861 470.52 50.447 470.788Z" fill="white"/>
<path d="M40.6894 475.181C40.8981 475.463 42.5133 474.371 43.1124 472.177C43.7272 469.985 42.9025 468.218 42.578 468.354C42.2157 468.452 42.3694 470.033 41.8509 471.828C41.3751 473.633 40.4284 474.911 40.6894 475.181Z" fill="white"/>
<path d="M65.1614 466.999C65.0602 467.362 66.7096 468.085 68.2358 469.572C69.7925 471.027 70.5904 472.643 70.9491 472.524C71.2919 472.458 70.9625 470.351 69.1398 468.625C67.3318 466.885 65.2127 466.655 65.1614 466.999Z" fill="white"/>
<path d="M137.557 390.515C137.557 393.335 124.945 523.035 124.945 523.035L167.55 527.975C167.55 527.975 178.155 462.564 179.8 450.507C181.444 438.45 186.967 416.846 186.967 416.846L277.862 407.856C277.862 407.856 233.281 345.487 228.946 345.225C224.609 344.964 137.557 390.515 137.557 390.515Z" fill="#37474F"/>
<path d="M63.9097 462.179C63.9097 462.179 140.205 358.758 144.605 353.341C149.006 347.924 154.085 342.17 169.996 342.17C185.907 342.17 228.945 345.225 228.945 345.225L251.685 334.866L334.232 347.594C334.232 347.594 337.279 386.864 331.863 396.006C326.446 405.146 294.285 407.517 287.514 407.855C280.743 408.192 175.88 393.957 175.88 393.957C175.88 393.957 155.329 422.481 145.463 433.445C138.429 441.263 100.89 489.435 100.89 489.435L63.9097 462.179Z" fill="#37474F"/>
<path d="M101.006 490.279L63.0569 462.307L63.4193 461.816C64.1818 460.782 139.773 358.321 144.133 352.957C148.259 347.879 153.393 341.559 169.997 341.559C185.27 341.559 225.981 344.405 228.834 344.605L251.599 334.235L251.779 334.262L334.803 347.064L334.84 347.546C334.966 349.158 337.84 387.117 332.387 396.317C326.509 406.239 291.514 408.266 287.544 408.463C280.947 408.85 184.004 395.675 176.161 394.613C173.939 397.683 155.151 423.591 145.917 433.854C138.978 441.567 101.747 489.331 101.372 489.812L101.006 490.279ZM64.7625 462.051L100.774 488.593C104.677 483.588 138.414 440.37 145.01 433.039C154.741 422.224 175.18 393.887 175.385 393.602L175.6 393.305L175.962 393.355C177.01 393.498 280.831 407.581 287.483 407.247C289.04 407.169 325.688 405.232 331.339 395.696C336.276 387.365 333.982 352.639 333.659 348.125L251.771 335.496L229.056 345.844L228.901 345.833C228.471 345.803 185.705 342.779 169.996 342.779C153.973 342.779 149.041 348.849 145.079 353.727C140.893 358.878 70.4782 454.304 64.7625 462.051Z" fill="#263238"/>
<path d="M167.449 380.251C167.596 380.156 169.802 383.307 172.375 387.288C174.949 391.27 176.916 394.575 176.768 394.67C176.621 394.765 174.415 391.615 171.841 387.632C169.269 383.652 167.301 380.346 167.449 380.251Z" fill="#263238"/>
<path d="M128.387 497.398L130.558 537.033C130.558 537.033 91.001 552.551 90.6899 559.915L167.69 558.465L166.84 496.57L128.387 497.398Z" fill="#263238"/>
<path d="M154.304 533.247C155.803 533.627 156.864 535.282 156.547 536.795C156.23 538.307 154.554 539.401 153.05 539.047C151.546 538.695 150.211 536.746 150.696 535.279C151.18 533.812 153.217 532.635 154.592 533.339" fill="#E0E0E0"/>
<path d="M167.689 558.465L167.358 552.229L93.6545 555.953C93.6545 555.953 90.2544 557.509 90.6875 559.916L167.689 558.465Z" fill="#4DA9EC"/>
<path d="M129.303 536.665C129.322 537.04 131.206 537.176 133.079 538.349C134.982 539.475 135.967 541.086 136.309 540.93C136.655 540.85 136.051 538.613 133.758 537.231C131.479 535.829 129.215 536.321 129.303 536.665Z" fill="white"/>
<path d="M121.289 540.157C121.209 540.523 122.85 541.132 124.157 542.699C125.51 544.226 125.865 545.94 126.238 545.916C126.592 545.969 126.812 543.761 125.149 541.846C123.505 539.913 121.29 539.798 121.289 540.157Z" fill="white"/>
<path d="M116.885 549.909C117.227 549.982 117.715 548.095 116.711 546.054C115.721 544.005 113.933 543.226 113.78 543.543C113.572 543.856 114.735 544.939 115.534 546.627C116.373 548.296 116.51 549.88 116.885 549.909Z" fill="white"/>
<path d="M129.809 527.577C129.974 527.917 131.688 527.366 133.817 527.469C135.947 527.53 137.615 528.212 137.804 527.885C138.016 527.61 136.375 526.248 133.867 526.16C131.361 526.054 129.62 527.285 129.809 527.577Z" fill="white"/>
<path d="M283.985 245.414L286.661 270.146L255.617 332.426C255.617 332.426 237.255 338.535 230.757 345.225L245.629 345.872C266.953 346.801 287.603 354.221 304.643 367.515C311.989 373.247 317.911 379.444 319.009 385.076C322.245 401.674 327.191 399.114 327.191 399.114L346.013 374.893L359.198 348.685L385.66 246.035L360.123 232.012L354.389 223.669L316.608 228.931L309.08 236.365L283.985 245.414Z" fill="#4DA9EC"/>
<path d="M221.276 311.758L237.137 305.117L262.062 270.156C262.062 270.156 273.62 247.043 283.985 245.415C294.351 243.788 286.661 270.147 286.661 270.147L270.68 315.529L244.906 333.57L227.13 332.025L215.623 322.225L221.276 311.758Z" fill="#4DA9EC"/>
<path d="M286.465 254.019C286.484 254.027 286.39 254.308 286.193 254.834C285.966 255.416 285.668 256.176 285.299 257.121C284.487 259.172 283.358 262.022 281.975 265.513C279.179 272.604 275.443 282.448 271.339 293.333C267.234 304.222 263.427 314.047 260.524 321.1C259.074 324.627 257.875 327.471 257.01 329.421C256.595 330.347 256.262 331.091 256.006 331.662C255.771 332.172 255.636 332.435 255.617 332.427C255.596 332.418 255.691 332.138 255.889 331.612C256.116 331.03 256.414 330.27 256.782 329.326C257.594 327.276 258.723 324.426 260.106 320.933C262.901 313.843 266.64 303.997 270.745 293.109C274.849 282.224 278.654 272.399 281.559 265.346C283.008 261.819 284.208 258.975 285.073 257.026C285.487 256.099 285.82 255.355 286.077 254.784C286.311 254.274 286.445 254.01 286.465 254.019Z" fill="#263238"/>
<path d="M317.589 252.993C317.548 253.012 317.211 252.413 316.636 251.313C316.021 250.099 315.222 248.521 314.261 246.624L314.678 246.622C313.847 248.454 312.878 250.628 311.592 252.935C310.305 255.233 308.666 257.679 306.414 259.761L305.821 260.31L305.882 259.505C305.886 259.465 305.888 259.422 305.892 259.378C306.351 253.08 307.092 247.409 307.762 243.328C308.095 241.287 308.401 239.642 308.636 238.51C308.87 237.378 309.025 236.757 309.067 236.764C309.111 236.773 309.038 237.408 308.88 238.552C308.705 239.812 308.478 241.439 308.207 243.394C307.652 247.483 306.984 253.145 306.526 259.423C306.523 259.466 306.52 259.51 306.516 259.55L305.985 259.294C308.165 257.277 309.784 254.898 311.079 252.645C312.374 250.382 313.38 248.235 314.259 246.427L314.474 245.984L314.676 246.424C315.563 248.358 316.3 249.966 316.866 251.203C317.371 252.336 317.629 252.973 317.589 252.993Z" fill="#263238"/>
<path d="M357.666 233.94C357.683 233.955 357.561 234.125 357.315 234.438C357.016 234.802 356.654 235.246 356.214 235.783C355.238 236.935 353.808 238.588 351.975 240.571C348.323 244.548 343.058 249.851 336.837 255.263C334.014 257.724 331.241 259.997 328.656 262.012L328.185 262.379L328.175 261.785C328.096 257.115 327.214 253.094 326.278 250.107L326.581 250.221C324.663 251.322 323.105 252.215 321.94 252.885C320.851 253.495 320.252 253.809 320.233 253.775C320.212 253.74 320.773 253.362 321.825 252.692C322.966 251.984 324.491 251.035 326.368 249.866L326.587 249.73L326.672 249.979C327.694 252.971 328.652 257.033 328.77 261.773L328.29 261.546C330.852 259.515 333.607 257.238 336.421 254.785C342.622 249.389 347.921 244.154 351.648 240.263C353.519 238.323 354.998 236.72 356.029 235.62C356.503 235.115 356.896 234.696 357.218 234.353C357.497 234.068 357.65 233.925 357.666 233.94Z" fill="#263238"/>
<path d="M355.378 226.907L357.947 174.438C359.579 158.011 351.38 143.367 334.912 142.191L333.385 142.17C318.006 141.97 305.048 153.608 303.613 168.92C302.277 183.167 300.984 198.925 300.979 206.578C300.969 222.419 316.779 225.089 316.779 225.089C316.815 225.091 316.355 234.708 316.094 239.351L319.408 251.433L355.378 226.907Z" fill="#FFBF9D"/>
<path d="M316.808 225.13C316.808 225.13 326.784 225.846 337.512 219.301C337.512 219.301 332.395 231.145 316.608 229.513L316.808 225.13Z" fill="#FF9A6C"/>
<path d="M308.333 183.396C308.275 184.591 309.238 185.624 310.484 185.707C311.727 185.79 312.785 184.892 312.842 183.698C312.901 182.503 311.937 181.469 310.694 181.386C309.448 181.303 308.39 182.202 308.333 183.396Z" fill="#263238"/>
<path d="M306.919 175.416C307.196 175.715 308.926 174.468 311.36 174.508C313.791 174.51 315.562 175.786 315.83 175.491C315.962 175.362 315.682 174.825 314.913 174.248C314.154 173.674 312.856 173.108 311.339 173.095C309.823 173.084 308.541 173.624 307.8 174.187C307.042 174.753 306.781 175.283 306.919 175.416Z" fill="#263238"/>
<path d="M329.562 183.865C329.505 185.059 330.468 186.093 331.713 186.176C332.956 186.259 334.014 185.361 334.072 184.166C334.129 182.972 333.165 181.939 331.922 181.854C330.676 181.77 329.62 182.671 329.562 183.865Z" fill="#263238"/>
<path d="M330.771 176.291C331.048 176.59 332.781 175.344 335.213 175.382C337.645 175.386 339.415 176.661 339.683 176.366C339.814 176.235 339.538 175.699 338.765 175.124C338.007 174.549 336.708 173.984 335.191 173.971C333.675 173.96 332.393 174.501 331.651 175.063C330.897 175.628 330.636 176.158 330.771 176.291Z" fill="#263238"/>
<path d="M321.796 194.882C321.809 194.742 320.299 194.462 317.851 194.117C317.231 194.045 316.644 193.914 316.545 193.488C316.405 193.038 316.673 192.371 316.984 191.651C317.588 190.154 318.22 188.586 318.884 186.942C321.524 180.237 323.444 174.72 323.173 174.615C322.901 174.511 320.542 179.862 317.902 186.567C317.266 188.222 316.657 189.798 316.079 191.306C315.835 192.01 315.42 192.805 315.725 193.741C315.886 194.208 316.339 194.551 316.735 194.663C317.133 194.79 317.482 194.801 317.789 194.824C320.255 194.989 321.785 195.019 321.796 194.882Z" fill="#263238"/>
<path d="M330.082 168.667C330.404 169.293 332.775 168.671 335.651 168.645C338.528 168.564 340.919 169.097 341.218 168.46C341.349 168.156 340.872 167.59 339.865 167.074C338.868 166.558 337.33 166.143 335.605 166.174C333.881 166.208 332.359 166.679 331.381 167.231C330.396 167.785 329.939 168.37 330.082 168.667Z" fill="#263238"/>
<path d="M306.9 168.259C307.39 168.826 309.387 168.308 311.771 168.347C314.155 168.316 316.161 168.841 316.641 168.276C316.852 168.001 316.551 167.438 315.684 166.89C314.83 166.345 313.388 165.877 311.75 165.874C310.112 165.871 308.68 166.332 307.835 166.875C306.976 167.421 306.685 167.983 306.9 168.259Z" fill="#263238"/>
<path d="M356.53 185.607C356.801 185.494 367.456 182.529 366.969 193.354C366.482 204.178 355.715 201.457 355.711 201.146C355.706 200.834 356.53 185.607 356.53 185.607Z" fill="#FFBF9D"/>
<path d="M359.201 197.193C359.25 197.161 359.384 197.334 359.696 197.495C360 197.651 360.531 197.773 361.104 197.586C362.267 197.218 363.311 195.446 363.452 193.497C363.524 192.514 363.359 191.566 363.045 190.774C362.75 189.967 362.263 189.39 361.692 189.262C361.125 189.104 360.703 189.431 360.556 189.73C360.398 190.026 360.458 190.244 360.399 190.261C360.367 190.287 360.175 190.07 360.282 189.626C360.337 189.412 360.475 189.163 360.738 188.967C361.007 188.767 361.395 188.677 361.794 188.738C362.626 188.833 363.343 189.634 363.688 190.504C364.08 191.38 364.287 192.445 364.205 193.551C364.038 195.728 362.831 197.719 361.245 198.101C360.474 198.266 359.849 198.007 359.533 197.738C359.21 197.456 359.163 197.212 359.201 197.193Z" fill="#FF9A6C"/>
<path d="M282.579 152.958C282.778 152.328 283.265 151.823 283.848 151.512C285.119 150.832 286.544 150.991 287.925 151.029C291.363 151.121 294.807 150.388 297.936 148.967C296.892 148.38 295.923 147.68 295.112 146.798C293.437 144.976 292.546 142.261 293.448 139.957C293.617 139.525 293.892 139.076 294.342 138.958C295.055 138.773 295.64 139.489 296.107 140.058C297.642 141.929 299.099 142.767 301.513 142.627C303.014 142.54 304.474 142.267 305.681 141.586C305.73 141.54 305.774 141.487 305.824 141.441C306.412 140.884 306.985 140.352 307.55 139.839C307.551 139.836 307.553 139.834 307.553 139.834L307.552 139.836C311.798 135.973 315.421 133.324 319.089 132.027C324.465 130.126 333.341 129.645 338.79 131.326C344.239 133.008 348.996 137.692 349.519 143.371C352.722 140.891 357.361 141.111 361.06 142.786L361.157 142.749C365.284 144.422 367.475 148.953 368.529 153.282C368.586 153.519 368.635 153.758 368.689 153.996C370.009 156.303 371.854 158.311 374.094 159.747C374.489 160.001 374.94 160.309 374.969 160.778C374.999 161.241 374.591 161.609 374.202 161.862C373.166 162.539 371.976 162.962 370.749 163.126C371.089 164.158 371.496 165.165 372.012 166.131C372.451 166.952 372.972 167.937 372.523 168.753C372.176 169.384 371.346 169.614 370.638 169.48C369.931 169.345 369.317 168.924 368.726 168.513C369.145 169.652 369.565 170.791 369.983 171.931C368.456 172.13 366.891 171.941 365.436 171.431C364.374 175.39 363.387 182.765 362.241 185.43C359.366 185.357 358.681 185.014 357.211 185.434C355.31 185.976 355.883 189.325 353.484 188.277C352.263 187.743 350.558 182.954 350.197 181.671C347.8 173.158 347.272 164.128 348.644 155.391C346.988 153.466 344.956 151.863 342.699 150.699L342.88 150.876C338.52 149.149 333.579 147.421 329.289 149.319C325.962 150.792 323.901 154.09 321.35 156.682C316.514 161.596 311.173 164.101 304.279 164.101C303.453 168.854 302.935 176.661 302.509 181.111L299.084 172.021L299.079 172.058C298.794 171.522 298.563 170.983 298.34 170.445L298.262 170.282L298.263 170.261C297.909 169.396 297.575 168.531 297.118 167.67C297.103 167.682 297.088 167.694 297.074 167.706C294.565 169.734 291.146 166.323 293.162 163.806C293.563 163.307 294.035 162.866 294.568 162.51C293.419 163.5 291.751 163.925 290.322 163.418C288.894 162.91 287.832 161.397 288.024 159.893C288.154 158.866 288.93 157.977 289.878 157.609C287.92 157.676 285.942 157.165 284.282 156.121C283.19 155.439 282.141 154.345 282.579 152.958Z" fill="#263238"/>
<path d="M344.454 144.976C344.421 145.015 345.099 145.424 345.981 146.498C346.853 147.566 347.805 149.402 348.187 151.862C348.383 153.084 348.482 154.447 348.419 155.905C348.363 157.364 348.178 158.922 347.995 160.563C347.818 162.205 347.626 163.94 347.654 165.754C347.668 166.659 347.737 167.583 347.894 168.51C348.055 169.421 348.249 170.411 348.898 171.216C349.414 171.872 350.31 172.191 351.101 172.064C351.899 171.958 352.622 171.566 353.162 171.014C354.233 169.868 354.552 168.37 354.861 167.051L354.527 167.077C355.019 168.295 355.526 169.5 356.312 170.478C357.084 171.461 358.182 172.137 359.323 172.288C359.89 172.364 360.469 172.298 360.969 172.073C361.479 171.852 361.859 171.453 362.127 171.027C362.383 170.593 362.527 170.11 362.523 169.637C362.517 169.166 362.352 168.713 362.067 168.383L361.892 168.526C363.055 169.97 364.312 170.773 365.186 171.226C365.628 171.453 365.983 171.592 366.223 171.681C366.466 171.764 366.593 171.8 366.598 171.791C366.602 171.78 366.481 171.725 366.248 171.622C366.016 171.515 365.672 171.359 365.245 171.118C364.398 170.639 363.183 169.818 362.072 168.387L361.897 168.53C362.406 169.118 362.394 170.111 361.902 170.888C361.654 171.271 361.306 171.626 360.857 171.813C360.411 172.008 359.884 172.065 359.366 171.991C358.32 171.842 357.295 171.208 356.573 170.273C355.833 169.338 355.342 168.166 354.857 166.946L354.65 166.429L354.522 166.973C354.212 168.291 353.879 169.726 352.903 170.759C352.42 171.254 351.758 171.606 351.06 171.698C350.36 171.803 349.637 171.542 349.186 170.979C348.619 170.283 348.416 169.345 348.26 168.448C348.106 167.544 348.037 166.639 348.02 165.748C347.988 163.964 348.171 162.241 348.338 160.6C348.511 158.959 348.685 157.393 348.729 155.915C348.779 154.437 348.664 153.055 348.448 151.816C348.027 149.323 347.018 147.463 346.095 146.404C345.16 145.341 344.454 144.976 344.454 144.976Z" fill="#4DA9EC"/>
<path d="M294.78 158.287C294.776 158.291 294.818 158.329 294.903 158.4C295.007 158.483 295.133 158.583 295.286 158.705C295.454 158.842 295.667 159.003 295.939 159.164C296.206 159.332 296.509 159.537 296.881 159.713C298.322 160.475 300.652 161.271 303.61 161.224C306.54 161.185 310.092 160.301 313.324 158.105C316.588 155.965 319.51 152.731 321.946 148.989C323.181 147.12 324.204 145.193 325.317 143.422C326.423 141.648 327.631 140.017 329.065 138.751C330.481 137.476 332.102 136.558 333.748 136.175C334.569 135.969 335.389 135.95 336.167 136.001C336.947 136.075 337.68 136.266 338.354 136.518C339.699 137.035 340.769 137.837 341.572 138.649C342.377 139.468 342.904 140.32 343.26 141.045C343.918 142.533 343.918 143.47 343.975 143.456C343.983 143.456 343.98 143.399 343.971 143.289C343.956 143.156 343.938 142.996 343.917 142.801C343.857 142.373 343.701 141.751 343.392 140.986C343.051 140.238 342.531 139.357 341.722 138.505C340.916 137.661 339.832 136.823 338.451 136.275C337.761 136.006 337.004 135.802 336.197 135.717C335.392 135.654 334.53 135.669 333.681 135.876C331.971 136.259 330.294 137.198 328.839 138.496C327.365 139.786 326.129 141.444 325.011 143.229C323.884 145.013 322.86 146.936 321.636 148.786C319.218 152.5 316.339 155.698 313.136 157.819C309.963 159.998 306.493 160.888 303.607 160.962C300.697 161.041 298.393 160.298 296.948 159.583C295.49 158.86 294.811 158.244 294.78 158.287Z" fill="#4DA9EC"/>
<path d="M293.637 151.263C293.622 151.285 293.819 151.433 294.187 151.683C294.552 151.94 295.114 152.262 295.834 152.61C296.55 152.964 297.443 153.304 298.461 153.599C299.482 153.876 300.629 154.1 301.848 154.197C303.068 154.281 304.235 154.232 305.287 154.112C306.336 153.97 307.269 153.769 308.032 153.526C308.794 153.289 309.398 153.055 309.797 152.855C310.2 152.662 310.416 152.545 310.405 152.522C310.377 152.457 309.482 152.871 307.96 153.274C307.201 153.481 306.279 153.653 305.248 153.773C304.214 153.873 303.071 153.91 301.876 153.827C300.681 153.731 299.556 153.524 298.55 153.27C297.548 152.998 296.661 152.689 295.943 152.372C294.497 151.746 293.675 151.204 293.637 151.263Z" fill="#4DA9EC"/>
<path d="M321.621 202.287C321.769 201.903 324.269 203.028 327.009 201.69C329.753 200.359 330.677 197.569 331.035 197.708C331.207 197.745 331.252 198.521 330.775 199.659C330.314 200.779 329.232 202.23 327.555 203.047C325.878 203.86 324.174 203.764 323.11 203.386C322.023 203.011 321.53 202.452 321.621 202.287Z" fill="#263238"/>
<path d="M299.722 434.464C299.722 433.695 308.206 378.604 311.483 371.578C314.08 366.01 334.895 361.665 357.192 352.668C381.196 342.982 409.028 342.309 409.028 342.309L373.797 423.635L299.722 434.464Z" fill="#263238"/>
<path d="M312.197 317.626L291.865 319.135V338.587L314.842 341.329L312.197 317.626Z" fill="#FFBF9D"/>
<path d="M376.674 241.409C386.709 245.541 396.024 254.444 395.417 265.983C394.515 283.09 390.502 319.796 389.572 329.256C388.358 341.598 384.177 352.001 366.015 352.683C347.852 353.365 321.115 348.952 321.115 348.952C321.115 348.952 311.488 353.823 308.834 348.466C308.13 347.045 303.354 318.285 303.354 318.285C303.354 317.902 305.71 315.166 309.078 313.479C312.895 311.569 317.545 313.03 319.655 316.741L355.072 315.585L362.089 282.271" fill="#4DA9EC"/>
<path d="M362.089 282.269C362.089 282.269 362.067 282.465 361.996 282.846C361.918 283.246 361.809 283.806 361.668 284.536C361.362 286.045 360.917 288.239 360.342 291.082C359.156 296.815 357.433 305.144 355.266 315.622L355.235 315.774L355.08 315.779C347.816 316.031 339.455 316.32 330.197 316.642C327.881 316.722 325.509 316.802 323.084 316.885C322.478 316.906 321.868 316.927 321.255 316.947L320.333 316.979L319.871 316.995L319.755 316.999L319.696 317.001L319.667 317.002C319.713 317.034 319.209 316.745 319.419 316.861L319.412 316.849L319.291 316.659C318.66 315.643 317.805 314.739 316.758 314.104C314.693 312.802 311.927 312.508 309.601 313.551C308.434 314.066 307.323 314.789 306.291 315.597C305.773 316.003 305.274 316.44 304.805 316.905C304.573 317.139 304.342 317.378 304.13 317.628C304.022 317.753 303.923 317.879 303.825 318.007C303.745 318.103 303.627 318.341 303.64 318.282L303.636 318.236C304.761 324.919 305.955 331.945 307.268 339.222C307.608 341.039 307.95 342.871 308.296 344.719C308.482 345.638 308.66 346.569 308.878 347.479C308.989 347.957 309.066 348.327 309.354 348.699C309.486 348.876 309.57 349.093 309.737 349.238L310.22 349.691C311.654 350.778 313.68 350.804 315.52 350.475C317.389 350.157 319.237 349.49 320.973 348.671L321.069 348.626L321.166 348.642C328.364 349.779 335.966 350.741 343.717 351.472C349.082 351.965 354.397 352.318 359.639 352.409C364.867 352.471 370.089 352.438 374.917 350.962C377.312 350.203 379.557 349.066 381.47 347.534C383.38 346 384.932 344.063 386.024 341.913C388.215 337.587 388.959 332.791 389.387 328.166C391.326 309.572 393.086 292.834 394.281 278.75C394.582 275.231 394.842 271.876 395.053 268.701C395.163 267.112 395.258 265.569 395.228 264.088C395.199 263.348 395.09 262.622 395.026 261.906C394.898 261.199 394.74 260.509 394.6 259.827C393.886 257.132 392.679 254.788 391.306 252.835C389.933 250.876 388.416 249.284 386.973 247.948C384.023 245.331 381.351 243.775 379.52 242.808C378.607 242.31 377.882 241.991 377.398 241.766C376.915 241.54 376.674 241.41 376.674 241.41C376.674 241.41 376.932 241.5 377.424 241.707C377.917 241.912 378.653 242.214 379.577 242.696C381.433 243.63 384.138 245.158 387.137 247.765C388.604 249.097 390.149 250.69 391.553 252.663C392.957 254.628 394.198 256.999 394.942 259.737C395.088 260.43 395.253 261.131 395.387 261.851C395.456 262.58 395.572 263.319 395.604 264.074C395.645 265.594 395.556 267.138 395.453 268.727C395.258 271.906 395.013 275.265 394.726 278.788C393.588 292.882 391.873 309.632 389.967 328.225C389.542 332.863 388.805 337.741 386.559 342.193C385.439 344.407 383.833 346.421 381.855 348.012C379.874 349.602 377.555 350.777 375.101 351.556C370.153 353.072 364.864 353.101 359.627 353.041C354.362 352.951 349.033 352.598 343.657 352.104C335.888 351.372 328.282 350.406 321.062 349.261L321.255 349.232C319.444 350.084 317.579 350.756 315.623 351.09C313.716 351.421 311.521 351.444 309.835 350.178L309.274 349.649C309.083 349.476 308.98 349.235 308.831 349.03C308.52 348.647 308.372 348.066 308.277 347.623C308.054 346.688 307.878 345.761 307.693 344.837C307.348 342.985 307.007 341.148 306.669 339.329C305.365 332.046 304.181 325.018 303.07 318.33L303.064 318.293L303.066 318.282C303.147 317.885 303.261 317.856 303.364 317.67C303.473 317.528 303.581 317.388 303.696 317.257C303.922 316.991 304.162 316.744 304.403 316.501C304.891 316.019 305.406 315.571 305.941 315.153C307.013 314.319 308.141 313.585 309.38 313.04C311.881 311.927 314.842 312.249 317.044 313.646C318.159 314.33 319.071 315.298 319.741 316.384L319.869 316.586L319.878 316.598C320.094 316.72 319.592 316.447 319.65 316.474L319.679 316.473L319.736 316.472L319.852 316.468L320.315 316.453L321.236 316.424C321.848 316.404 322.458 316.386 323.065 316.367C325.49 316.291 327.862 316.218 330.177 316.146C339.437 315.863 347.799 315.607 355.064 315.384L354.877 315.541C357.121 305.078 358.903 296.761 360.131 291.038C360.75 288.204 361.229 286.017 361.558 284.512C361.723 283.788 361.848 283.231 361.94 282.834C362.029 282.458 362.089 282.269 362.089 282.269Z" fill="#263238"/>
<path d="M374.535 244.196C374.612 244.276 373.283 245.534 371.486 247.856C370.605 249.03 369.594 250.454 368.606 252.12C367.627 253.792 366.656 255.69 365.788 257.749C364.072 261.885 363.135 265.853 362.667 268.75C362.185 271.649 362.087 273.475 361.964 273.468C361.92 273.465 361.914 273.008 361.941 272.181C361.947 271.351 362.05 270.158 362.223 268.686C362.582 265.747 363.461 261.702 365.201 257.505C366.083 255.416 367.085 253.497 368.104 251.818C369.135 250.144 370.199 248.726 371.135 247.576C372.095 246.442 372.93 245.579 373.536 245.013C374.152 244.455 374.506 244.165 374.535 244.196Z" fill="#263238"/>
<path d="M370.335 330.475C370.221 330.501 369.955 329.257 369.135 327.413C368.325 325.569 366.843 323.165 364.617 321.041C362.379 318.926 359.9 317.572 358.016 316.86C356.13 316.137 354.876 315.937 354.896 315.823C354.902 315.78 355.219 315.8 355.791 315.874C356.364 315.935 357.183 316.123 358.166 316.438C359.156 316.744 360.289 317.245 361.484 317.917C362.663 318.614 363.896 319.497 365.053 320.582C366.195 321.68 367.142 322.865 367.9 324.006C368.633 325.165 369.193 326.271 369.55 327.242C369.916 328.208 370.146 329.016 370.237 329.586C370.342 330.15 370.379 330.466 370.335 330.475Z" fill="#263238"/>
<path d="M321.394 347.931C321.293 347.9 321.783 346.185 322.184 343.337C322.605 340.497 322.916 336.526 322.813 332.148C322.758 329.956 322.564 327.88 322.32 326C322.025 324.131 321.707 322.45 321.282 321.085C320.494 318.329 319.544 316.801 319.653 316.739C319.691 316.716 319.936 317.088 320.352 317.789C320.578 318.132 320.775 318.588 321.008 319.118C321.26 319.641 321.492 320.256 321.71 320.95C322.197 322.324 322.567 324.021 322.899 325.913C323.177 327.813 323.391 329.916 323.448 332.13C323.551 336.557 323.166 340.562 322.627 343.411C322.367 344.837 322.075 345.976 321.842 346.752C321.593 347.524 321.437 347.944 321.394 347.931Z" fill="#263238"/>
<path d="M183.301 274.582C183.301 274.582 184.687 271.281 187.427 270.596C187.427 270.596 201.041 274.216 205.015 278.601C205.015 278.601 205.808 275.499 213.123 269.276C222.273 261.491 232.482 261.491 232.482 261.491L239.721 266.039L210.715 286.352L202.089 289.367L183.301 274.582Z" fill="#FAFAFA"/>
<path d="M183.301 274.582C183.314 274.578 183.438 274.665 183.67 274.834C183.928 275.028 184.261 275.278 184.68 275.593C185.589 276.29 186.865 277.267 188.488 278.51C191.784 281.067 196.48 284.71 202.238 289.177L202.009 289.14C204.645 288.208 207.551 287.182 210.624 286.096L210.559 286.13C218.855 280.305 228.691 273.397 239.209 266.011L239.54 265.781L239.553 266.31C237.095 264.765 234.674 263.242 232.316 261.76L232.483 261.808C226.22 262.123 220.373 264.433 215.789 267.612C213.5 269.221 211.465 271.045 209.63 272.869C208.712 273.782 207.865 274.723 207.1 275.682C206.353 276.634 205.631 277.657 205.255 278.664L205.109 279.056L204.832 278.769C203.408 277.295 201.637 276.309 199.989 275.453C198.322 274.605 196.698 273.923 195.176 273.335C192.13 272.157 189.489 271.328 187.394 270.723H187.459C185.629 271.228 184.671 272.53 184.1 273.297C183.814 273.703 183.622 274.03 183.498 274.252C183.372 274.475 183.314 274.582 183.301 274.582C183.289 274.582 183.332 274.449 183.437 274.218C183.543 273.985 183.716 273.644 183.989 273.219C184.537 272.42 185.462 271.052 187.396 270.47L187.425 270.462L187.46 270.472C189.578 271.035 192.237 271.823 195.312 272.97C196.851 273.542 198.492 274.211 200.186 275.053C201.866 275.909 203.667 276.877 205.197 278.433L204.775 278.538C205.211 277.334 205.925 276.362 206.689 275.359C207.463 274.373 208.317 273.413 209.241 272.485C211.089 270.629 213.121 268.787 215.453 267.131C220.127 263.875 226.012 261.511 232.481 261.177L232.565 261.172L232.649 261.224C235.009 262.705 237.43 264.225 239.89 265.77L240.295 266.025L239.902 266.299L239.571 266.531C229.034 273.89 219.179 280.772 210.868 286.576L210.837 286.598L210.801 286.61C207.721 287.675 204.809 288.681 202.166 289.595L202.039 289.639L201.937 289.557C196.2 284.979 191.523 281.244 188.239 278.623C186.665 277.35 185.425 276.348 184.543 275.635C184.152 275.311 183.839 275.054 183.598 274.854C183.392 274.677 183.29 274.586 183.301 274.582Z" fill="#263238"/>
<path d="M178.521 274.022L179.344 272.377L199.759 283.75C199.759 283.75 206.473 283.339 206.609 278.818C206.609 278.818 240.041 264.843 240.863 265.254C241.686 265.665 295.258 310.195 295.258 310.195L246.891 320.506L224.42 310.606L178.521 274.022Z" fill="#263238"/>
<path d="M240.706 317.78C240.594 317.915 231.336 310.406 220.031 301.009C208.721 291.611 199.647 283.884 199.759 283.749C199.871 283.613 209.128 291.121 220.437 300.52C231.743 309.917 240.818 317.645 240.706 317.78Z" fill="#263238"/>
<path d="M253.706 318.826C253.593 318.959 243.052 310.164 230.166 299.184C217.276 288.199 206.923 279.19 207.036 279.057C207.15 278.924 217.688 287.716 230.579 298.701C243.464 309.68 253.821 318.692 253.706 318.826Z" fill="#263238"/>
<path d="M206.89 292.874C206.749 292.87 202.193 292.438 201.099 294.423C200.006 296.406 199.884 297.501 200.329 298.674C200.774 299.849 202.962 302.359 202.962 302.359L203.691 303.736C203.691 303.736 202.233 306.692 202.962 309.122C203.691 311.553 205.918 313.011 205.918 313.011C205.918 313.011 206.282 318.963 209.886 319.003C209.886 319.003 210.817 322.364 214.138 322.284C217.459 322.203 219.119 323.054 222.804 321.15C226.489 319.247 230.758 317.344 231.701 315.441C232.644 313.538 229.361 313.335 229.361 313.335C229.361 313.335 231.147 308.436 225.396 309.083C225.396 309.083 226.044 304.022 222.358 303.414C218.673 302.806 211.182 303.252 211.182 303.252L208.226 299.688C208.226 299.688 210.372 299.081 210.494 297.177C210.615 295.273 208.597 292.935 206.89 292.874Z" fill="#FFBF9D"/>
<path d="M282.054 312.213C281.686 312.336 277.256 314.304 274.304 313.935C271.351 313.567 248.468 301.017 245.146 300.034C241.823 299.049 236.164 300.033 240.224 304.34C244.284 308.647 256.833 315.659 257.08 316.028C257.326 316.397 257.818 318.409 257.818 318.409L245.022 313.567C245.022 313.567 235.672 308.892 234.196 311.721C232.72 314.55 234.934 316.15 237.272 316.889C239.609 317.627 242.193 318.409 242.193 318.409C242.193 318.409 244.9 323.41 247.606 325.378C250.313 327.347 262.616 335.221 264.708 336.082C266.799 336.943 292.022 338.911 292.513 338.543C293.005 338.173 292.513 319.719 292.513 319.719L283.655 311.722L282.054 312.213Z" fill="#FFBF9D"/>
</g>
<defs>
<clipPath id="clip0_26_9469">
<rect width="610" height="610" fill="white"/>
</clipPath>
</defs>
</svg>
