<svg width="48" height="48" viewBox="0 0 48 48" fill="none" xmlns="http://www.w3.org/2000/svg">
<path d="M42.0003 8.64706V39.3529C42.0003 40.055 41.7214 40.7283 41.225 41.2247C40.7286 41.7211 40.0553 42 39.3532 42H8.64736C7.94532 42 7.27203 41.7211 6.77561 41.2247C6.27919 40.7283 6.00031 40.055 6.00031 39.3529V8.64706C6.00031 7.94502 6.27919 7.27173 6.77561 6.77531C7.27203 6.27889 7.94532 6 8.64736 6H39.3532C40.0553 6 40.7286 6.27889 41.225 6.77531C41.7214 7.27173 42.0003 7.94502 42.0003 8.64706ZM16.5885 19.7647H11.2944V36.7059H16.5885V19.7647ZM17.065 13.9412C17.0678 13.5407 16.9917 13.1436 16.841 12.7726C16.6903 12.4016 16.4681 12.0638 16.1869 11.7787C15.9057 11.4936 15.571 11.2666 15.2021 11.1108C14.8332 10.955 14.4372 10.8734 14.0368 10.8706H13.9415C13.1271 10.8706 12.3461 11.1941 11.7702 11.7699C11.1944 12.3458 10.8709 13.1268 10.8709 13.9412C10.8709 14.7555 11.1944 15.5366 11.7702 16.1124C12.3461 16.6883 13.1271 17.0118 13.9415 17.0118C14.342 17.0216 14.7405 16.9525 15.1142 16.8083C15.488 16.664 15.8296 16.4476 16.1197 16.1713C16.4098 15.895 16.6426 15.5642 16.8048 15.1979C16.967 14.8316 17.0554 14.437 17.065 14.0365V13.9412ZM36.7062 26.4141C36.7062 21.3212 33.4662 19.3412 30.2474 19.3412C29.1935 19.2884 28.1441 19.5129 27.2041 19.9922C26.264 20.4715 25.466 21.189 24.8897 22.0729H24.7415V19.7647H19.765V36.7059H25.0591V27.6953C24.9826 26.7725 25.2733 25.8567 25.8681 25.1469C26.4628 24.4372 27.3136 23.9908 28.2356 23.9047H28.4368C30.1203 23.9047 31.3697 24.9635 31.3697 27.6318V36.7059H36.6638L36.7062 26.4141Z" fill="#E6557E"/>
</svg>
