<svg width="48" height="48" viewBox="0 0 48 48" fill="none" xmlns="http://www.w3.org/2000/svg">
<path fill-rule="evenodd" clip-rule="evenodd" d="M8.24915 10.5C7.0065 10.5 5.99915 11.5074 5.99915 12.75V35.25C5.99915 36.4926 7.0065 37.5 8.24915 37.5H39.7491C40.9918 37.5 41.9991 36.4926 41.9991 35.25V12.75C41.9991 11.5074 40.9918 10.5 39.7491 10.5H8.24915ZM2.99915 12.75C2.99915 9.8505 5.34965 7.5 8.24915 7.5H39.7491C42.6486 7.5 44.9991 9.8505 44.9991 12.75V35.25C44.9991 38.1495 42.6486 40.5 39.7491 40.5H8.24915C5.34965 40.5 2.99915 38.1495 2.99915 35.25V12.75Z" fill="#E6557E"/>
<path fill-rule="evenodd" clip-rule="evenodd" d="M9.31512 14.0791C9.82372 13.4252 10.7661 13.3074 11.4201 13.816L23.9991 23.5997L36.5782 13.816C37.2322 13.3074 38.1746 13.4252 38.6832 14.0791C39.1918 14.733 39.074 15.6754 38.4201 16.184L24.9201 26.684C24.3784 27.1053 23.6199 27.1053 23.0782 26.684L9.57824 16.184C8.92431 15.6754 8.80651 14.733 9.31512 14.0791Z" fill="#E6557E"/>
</svg>
