<svg width="48" height="48" viewBox="0 0 48 48" fill="none" xmlns="http://www.w3.org/2000/svg">
<path fill-rule="evenodd" clip-rule="evenodd" d="M38.8801 9.10322C36.9386 7.16079 34.632 5.62155 32.0933 4.57411C29.5545 3.52668 26.8336 2.99174 24.0873 3.0001C12.5616 3.0001 3.17915 12.3357 3.17446 23.8126C3.16936 27.4671 4.13267 31.0577 5.96633 34.2188L2.99915 45.0001L14.0851 42.106C17.1537 43.7684 20.5888 44.6385 24.0788 44.6373H24.0873C35.612 44.6373 44.9935 35.3007 44.9991 23.8248C45.0061 21.0878 44.4687 18.3768 43.4182 15.8494C42.3677 13.3221 40.8251 11.0288 38.8801 9.10322ZM24.0873 41.1245H24.0798C20.9686 41.1254 17.9139 40.2928 15.2335 38.7132L14.5988 38.3382L8.0204 40.0557L9.77633 33.6723L9.3629 33.016C7.62326 30.2618 6.70157 27.0702 6.70508 23.8126C6.70508 14.2754 14.506 6.51572 24.0938 6.51572C28.6932 6.50751 33.1075 8.32653 36.3658 11.5727C39.6241 14.8189 41.4596 19.2264 41.4685 23.8257C41.4648 33.3638 33.6676 41.1245 24.0873 41.1245ZM33.6207 28.1692C33.0985 27.9085 30.527 26.6504 30.0507 26.477C29.5745 26.3035 29.2229 26.2163 28.8751 26.7376C28.5273 27.2588 27.5251 28.4251 27.2204 28.7767C26.9157 29.1282 26.611 29.1667 26.0888 28.906C25.5666 28.6454 23.882 28.097 21.886 26.3251C20.3326 24.946 19.2845 23.2435 18.9798 22.7232C18.6751 22.2029 18.947 21.9207 19.2085 21.662C19.4438 21.4285 19.7307 21.0545 19.9923 20.7507C20.2538 20.447 20.341 20.2295 20.5145 19.8826C20.6879 19.5357 20.6016 19.232 20.4713 18.9723C20.341 18.7126 19.2957 16.1523 18.8607 15.1107C18.436 14.0963 18.0057 14.2342 17.6851 14.2182C17.3804 14.2032 17.0288 14.1995 16.6829 14.1995C16.4184 14.2064 16.1582 14.2677 15.9185 14.3796C15.6788 14.4916 15.4648 14.6517 15.2898 14.8501C14.8107 15.3713 13.4607 16.6313 13.4607 19.1888C13.4607 21.7463 15.3357 24.2213 15.5945 24.5682C15.8532 24.9151 19.2788 30.1679 24.5204 32.4207C25.4937 32.8375 26.4882 33.203 27.4998 33.5157C28.7513 33.9114 29.8904 33.856 30.7904 33.722C31.7945 33.5729 33.8841 32.4639 34.3182 31.2488C34.7523 30.0338 34.7532 28.9932 34.6229 28.7767C34.4926 28.5601 34.1438 28.4289 33.6207 28.1692Z" fill="#E6557E"/>
</svg>
